<?xml version="1.0" encoding="UTF-8" standalone="no"?>
<!-- Created with Inkscape (http://www.inkscape.org/) -->

<svg
   xmlns:ns0="http://NOTSET"
   xmlns:dc="http://purl.org/dc/elements/1.1/"
   xmlns:cc="http://creativecommons.org/ns#"
   xmlns:rdf="http://www.w3.org/1999/02/22-rdf-syntax-ns#"
   xmlns:svg="http://www.w3.org/2000/svg"
   xmlns="http://www.w3.org/2000/svg"
   xmlns:xlink="http://www.w3.org/1999/xlink"
   xmlns:sodipodi="http://sodipodi.sourceforge.net/DTD/sodipodi-0.dtd"
   xmlns:inkscape="http://www.inkscape.org/namespaces/inkscape"
   width="210mm"
   height="297mm"
   viewBox="0 0 210 297"
   version="1.1"
   id="svg305"
   inkscape:version="0.92.4 (5da689c313, 2019-01-14)"
   sodipodi:docname="curva_variedad.svg">
  <defs
     id="defs299">
    <marker
       inkscape:stockid="Arrow1Lend"
       orient="auto"
       refY="0.0"
       refX="0.0"
       id="Arrow1Lend"
       style="overflow:visible;"
       inkscape:isstock="true">
      <path
         id="path1357"
         d="M 0.0,0.0 L 5.0,-5.0 L -12.5,0.0 L 5.0,5.0 L 0.0,0.0 z "
         style="fill-rule:evenodd;stroke:#000000;stroke-width:1pt;stroke-opacity:1;fill:#000000;fill-opacity:1"
         transform="scale(0.8) rotate(180) translate(12.5,0)" />
    </marker>
    <g
       id="g5528">
      <symbol
         style="overflow:visible"
         overflow="visible"
         id="lx-text5448-glyph0-0">
        <path
           inkscape:connector-curvature="0"
           style="stroke:none"
           d=""
           id="path5522" />
      </symbol>
      <symbol
         style="overflow:visible"
         overflow="visible"
         id="lx-text5448-glyph0-1">
        <path
           inkscape:connector-curvature="0"
           style="stroke:none"
           d="m 13.828125,-9.046875 c 0.140625,-0.546875 0.171875,-0.6875 1.28125,-0.6875 0.34375,0 0.484375,0 0.484375,-0.296875 0,-0.171875 -0.15625,-0.171875 -0.40625,-0.171875 h -1.96875 c -0.390625,0 -0.40625,0 -0.578125,0.28125 L 7.1875,-1.40625 6.015625,-9.859375 C 5.96875,-10.203125 5.9375,-10.203125 5.5625,-10.203125 H 3.515625 c -0.296875,0 -0.453125,0 -0.453125,0.28125 0,0.1875 0.140625,0.1875 0.4375,0.1875 0.1875,0 0.453125,0.015625 0.640625,0.03125 0.234375,0.03125 0.328125,0.0625 0.328125,0.234375 0,0.0625 -0.015625,0.109375 -0.0625,0.28125 l -1.890625,7.609375 c -0.15625,0.59375 -0.40625,1.0625 -1.625,1.109375 -0.0625,0 -0.265625,0.015625 -0.265625,0.296875 C 0.625,-0.046875 0.71875,0 0.84375,0 c 0.46875,0 1,-0.046875 1.484375,-0.046875 C 2.84375,-0.046875 3.375,0 3.875,0 3.9375,0 4.140625,0 4.140625,-0.296875 4.140625,-0.46875 3.96875,-0.46875 3.875,-0.46875 3.015625,-0.484375 2.859375,-0.78125 2.859375,-1.125 c 0,-0.09375 0.015625,-0.171875 0.046875,-0.34375 L 4.9375,-9.609375 H 4.953125 L 6.25,-0.34375 C 6.28125,-0.171875 6.28125,0 6.46875,0 6.625,0 6.71875,-0.171875 6.796875,-0.265625 l 6.03125,-9.453125 h 0.01563 l -2.140625,8.546875 c -0.14063,0.59375 -0.17188,0.703125 -1.35938,0.703125 -0.25,0 -0.40625,0 -0.40625,0.296875 C 8.9375,0 9.109375,0 9.15625,0 9.578125,0 10.59375,-0.046875 11.015625,-0.046875 11.625,-0.046875 12.265625,0 12.875,0 c 0.09375,0 0.28125,0 0.28125,-0.296875 0,-0.171875 -0.125,-0.171875 -0.421875,-0.171875 -0.546875,0 -0.96875,0 -0.96875,-0.265625 0,-0.0625 0,-0.09375 0.07813,-0.359375 z m 0,0"
           id="path5525" />
      </symbol>
    </g>
    <g
       id="g1295">
      <symbol
         id="lx-text1133-glyph0-0"
         overflow="visible"
         style="overflow:visible">
        <path
           id="path1289"
           d=""
           style="stroke:none"
           inkscape:connector-curvature="0" />
      </symbol>
      <symbol
         id="lx-text1133-glyph0-1"
         overflow="visible"
         style="overflow:visible">
        <path
           id="path1292"
           d="m 8.4375,-12.015625 c 0,-0.01563 0.0625,-0.25 0.0625,-0.265625 0,-0.171875 -0.140625,-0.171875 -0.1875,-0.171875 -0.171875,0 -0.1875,0.09375 -0.265625,0.359375 l -2.953125,11.875 c -1.484375,-0.171875 -2.046875,-0.921875 -2.046875,-2 0,-0.40625 0,-0.8125 0.84375,-3.03125 C 4.125,-5.90625 4.21875,-6.140625 4.21875,-6.453125 c 0,-0.8125 -0.578125,-1.453125 -1.421875,-1.453125 -1.65625,0 -2.3125,2.59375 -2.3125,2.734375 C 0.484375,-5.09375 0.5625,-5 0.6875,-5 c 0.15625,0 0.171875,-0.078125 0.25,-0.328125 0.421875,-1.5625 1.140625,-2.21875 1.8125,-2.21875 0.15625,0 0.453125,0.015625 0.453125,0.59375 0,0.0625 0,0.453125 -0.296875,1.25 -0.96875,2.546875 -0.96875,2.9375 -0.96875,3.359375 0,1.71875 1.4375,2.375 3.046875,2.5 C 4.84375,0.71875 4.71875,1.296875 4.578125,1.84375 4.28125,2.921875 4.15625,3.421875 4.15625,3.5 c 0,0.15625 0.15625,0.15625 0.203125,0.15625 0.03125,0 0.109375,0 0.140625,-0.0625 C 4.578125,3.515625 5.3125,0.5 5.375,0.171875 c 0.671875,0 2.09375,0 3.703125,-1.65625 0.59375,-0.65625 1.125,-1.46875 1.4375,-2.25 0.171875,-0.46875 0.609375,-2.0625 0.609375,-2.96875 0,-1.078125 -0.546875,-1.203125 -0.71875,-1.203125 -0.4375,0 -0.828125,0.421875 -0.828125,0.78125 0,0.21875 0.125,0.34375 0.203125,0.421875 0.15625,0.15625 0.640625,0.640625 0.640625,1.578125 0,0.640625 -0.359375,1.96875 -1.5,3.265625 -1.515625,1.6875 -2.890625,1.6875 -3.4375,1.6875 z m 0,0"
           style="stroke:none"
           inkscape:connector-curvature="0" />
      </symbol>
    </g>
    <g
       id="g1689">
      <symbol
         id="lx-text1497-glyph0-0"
         overflow="visible"
         style="overflow:visible">
        <path
           id="path1671"
           d=""
           style="stroke:none"
           inkscape:connector-curvature="0" />
      </symbol>
      <symbol
         id="lx-text1497-glyph0-1"
         overflow="visible"
         style="overflow:visible">
        <path
           id="path1674"
           d="m 5.40625,-0.796875 c -0.3125,0 -0.578125,0 -0.578125,-0.078125 0,-0.046875 0.296875,-1.71875 0.40625,-2.125 0.578125,-2.296875 1.9375,-3.9375 3.5,-3.9375 1.171875,0 1.703125,0.875 1.703125,1.859375 0,2.046875 -2.296875,4.28125 -5.03125,4.28125 z M 4.625,0.140625 c 0.109375,0.015625 0.296875,0.03125 0.609375,0.03125 2.9375,0 5.65625,-2.828125 5.65625,-5.65625 0,-1.09375 -0.484375,-2.421875 -2,-2.421875 -2.578125,0 -3.671875,3.640625 -4.671875,7.015625 -2.0625,-0.40625 -2.921875,-1.5 -2.921875,-2.703125 0,-0.484375 0.375,-2.390625 1.40625,-3.6875 0.203125,-0.234375 0.203125,-0.265625 0.203125,-0.3125 0,-0.140625 -0.140625,-0.140625 -0.1875,-0.140625 -0.484375,0 -1.84375,2.625 -1.84375,4.328125 0,2 1.578125,3.09375 3.03125,3.421875 l -0.921875,3.03125 c -0.09375,0.265625 -0.09375,0.3125 -0.09375,0.375 0,0.4375 0.421875,0.453125 0.46875,0.453125 C 3.53125,3.875 3.859375,3.796875 4,3.4375 4.046875,3.28125 4.5625,0.5 4.625,0.140625 Z m 0,0"
           style="stroke:none"
           inkscape:connector-curvature="0" />
      </symbol>
      <symbol
         id="lx-text1497-glyph0-2"
         overflow="visible"
         style="overflow:visible">
        <path
           id="path1677"
           d="M 9.078125,-4.125 C 8.453125,-1.609375 6.375,-0.140625 4.6875,-0.140625 3.390625,-0.140625 2.515625,-1 2.515625,-2.5 c 0,-0.0625 0,-0.609375 0.1875,-1.390625 L 4.46875,-10.9375 c 0.15625,-0.609375 0.1875,-0.796875 1.46875,-0.796875 0.328125,0 0.5,0 0.5,-0.3125 C 6.4375,-12.25 6.28125,-12.25 6.171875,-12.25 5.84375,-12.25 5.46875,-12.21875 5.125,-12.21875 H 3.015625 c -0.34375,0 -0.71875,-0.03125 -1.0625,-0.03125 -0.125,0 -0.34375,0 -0.34375,0.34375 0,0.171875 0.125,0.171875 0.46875,0.171875 1.078125,0 1.078125,0.140625 1.078125,0.34375 0,0.109375 -0.125,0.625 -0.21875,0.9375 l -1.5625,6.28125 c -0.046875,0.1875 -0.15625,0.671875 -0.15625,1.15625 0,1.96875 1.421875,3.390625 3.375,3.390625 1.8125,0 3.8125,-1.4375 4.734375,-3.71875 0.125,-0.296875 0.28125,-0.921875 0.390625,-1.40625 0.1875,-0.65625 0.5625,-2.234375 0.6875,-2.6875 l 0.671875,-2.703125 C 11.3125,-11.0625 11.46875,-11.65625 13.046875,-11.734375 13.1875,-11.75 13.25,-11.890625 13.25,-12.046875 13.25,-12.25 13.09375,-12.25 13.015625,-12.25 c -0.25,0 -0.5625,0.03125 -0.8125,0.03125 h -0.84375 c -1.109375,0 -1.6875,-0.03125 -1.703125,-0.03125 -0.109375,0 -0.328125,0 -0.328125,0.34375 0,0.171875 0.140625,0.171875 0.265625,0.171875 1.078125,0.04687 1.15625,0.453125 1.15625,0.78125 0,0.15625 0,0.203125 -0.07813,0.453125 z m 0,0"
           style="stroke:none"
           inkscape:connector-curvature="0" />
      </symbol>
      <symbol
         id="lx-text1497-glyph1-0"
         overflow="visible"
         style="overflow:visible">
        <path
           id="path1680"
           d=""
           style="stroke:none"
           inkscape:connector-curvature="0" />
      </symbol>
      <symbol
         id="lx-text1497-glyph1-1"
         overflow="visible"
         style="overflow:visible">
        <path
           id="path1683"
           d="m 5.828125,4.359375 c 0,-0.046875 0,-0.09375 -0.296875,-0.390625 -1.796875,-1.8125 -2.8125,-4.78125 -2.8125,-8.4375 0,-3.484375 0.84375,-6.46875 2.9375,-8.59375 0.171875,-0.15625 0.171875,-0.1875 0.171875,-0.25 0,-0.109375 -0.09375,-0.140625 -0.15625,-0.140625 -0.234375,0 -1.703125,1.296875 -2.59375,3.046875 -0.90625,1.8125 -1.3125,3.734375 -1.3125,5.9375 0,1.59375 0.25,3.734375 1.171875,5.65625 C 4,3.34375 5.46875,4.5 5.671875,4.5 c 0.0625,0 0.15625,-0.03125 0.15625,-0.140625 z m 0,0"
           style="stroke:none"
           inkscape:connector-curvature="0" />
      </symbol>
      <symbol
         id="lx-text1497-glyph1-2"
         overflow="visible"
         style="overflow:visible">
        <path
           id="path1686"
           d="m 5.0625,-4.46875 c 0,-1.359375 -0.1875,-3.578125 -1.1875,-5.671875 -1.0625,-2.140625 -2.53125,-3.3125 -2.734375,-3.3125 -0.0625,0 -0.15625,0.03125 -0.15625,0.140625 0,0.0625 0,0.09375 0.3125,0.390625 1.78125,1.8125 2.796875,4.78125 2.796875,8.4375 0,3.484375 -0.84375,6.46875 -2.921875,8.59375 -0.1875,0.15625 -0.1875,0.203125 -0.1875,0.25 C 0.984375,4.46875 1.078125,4.5 1.140625,4.5 1.375,4.5 2.859375,3.203125 3.734375,1.453125 4.640625,-0.375 5.0625,-2.3125 5.0625,-4.46875 Z m 0,0"
           style="stroke:none"
           inkscape:connector-curvature="0" />
      </symbol>
    </g>
    <g
       id="g1729">
      <symbol
         id="lx-text1501-glyph0-0"
         overflow="visible"
         style="overflow:visible">
        <path
           id="path1711"
           d=""
           style="stroke:none"
           inkscape:connector-curvature="0" />
      </symbol>
      <symbol
         id="lx-text1501-glyph0-1"
         overflow="visible"
         style="overflow:visible">
        <path
           id="path1714"
           d="m 8.4375,-12.015625 c 0,-0.01563 0.0625,-0.25 0.0625,-0.265625 0,-0.171875 -0.140625,-0.171875 -0.1875,-0.171875 -0.171875,0 -0.1875,0.09375 -0.265625,0.359375 l -2.953125,11.875 c -1.484375,-0.171875 -2.046875,-0.921875 -2.046875,-2 0,-0.40625 0,-0.8125 0.84375,-3.03125 C 4.125,-5.90625 4.21875,-6.140625 4.21875,-6.453125 c 0,-0.8125 -0.578125,-1.453125 -1.421875,-1.453125 -1.65625,0 -2.3125,2.59375 -2.3125,2.734375 C 0.484375,-5.09375 0.5625,-5 0.6875,-5 c 0.15625,0 0.171875,-0.078125 0.25,-0.328125 0.421875,-1.5625 1.140625,-2.21875 1.8125,-2.21875 0.15625,0 0.453125,0.015625 0.453125,0.59375 0,0.0625 0,0.453125 -0.296875,1.25 -0.96875,2.546875 -0.96875,2.9375 -0.96875,3.359375 0,1.71875 1.4375,2.375 3.046875,2.5 C 4.84375,0.71875 4.71875,1.296875 4.578125,1.84375 4.28125,2.921875 4.15625,3.421875 4.15625,3.5 c 0,0.15625 0.15625,0.15625 0.203125,0.15625 0.03125,0 0.109375,0 0.140625,-0.0625 C 4.578125,3.515625 5.3125,0.5 5.375,0.171875 c 0.671875,0 2.09375,0 3.703125,-1.65625 0.59375,-0.65625 1.125,-1.46875 1.4375,-2.25 0.171875,-0.46875 0.609375,-2.0625 0.609375,-2.96875 0,-1.078125 -0.546875,-1.203125 -0.71875,-1.203125 -0.4375,0 -0.828125,0.421875 -0.828125,0.78125 0,0.21875 0.125,0.34375 0.203125,0.421875 0.15625,0.15625 0.640625,0.640625 0.640625,1.578125 0,0.640625 -0.359375,1.96875 -1.5,3.265625 -1.515625,1.6875 -2.890625,1.6875 -3.4375,1.6875 z m 0,0"
           style="stroke:none"
           inkscape:connector-curvature="0" />
      </symbol>
      <symbol
         id="lx-text1501-glyph0-2"
         overflow="visible"
         style="overflow:visible">
        <path
           id="path1717"
           d="m 11.109375,-10.265625 c 0.609375,-0.96875 1.15625,-1.390625 2.078125,-1.46875 C 13.359375,-11.75 13.5,-11.75 13.5,-12.078125 c 0,-0.0625 -0.03125,-0.171875 -0.1875,-0.171875 -0.328125,0 -1.09375,0.03125 -1.421875,0.03125 -0.515625,0 -1.0625,-0.03125 -1.5625,-0.03125 -0.140625,0 -0.3125,0 -0.3125,0.34375 0,0.15625 0.15625,0.171875 0.234375,0.171875 0.65625,0.0625 0.734375,0.375 0.734375,0.59375 0,0.265625 -0.25,0.6875 -0.28125,0.703125 l -5.625,8.9375 -1.25,-9.671875 c 0,-0.515625 0.921875,-0.5625 1.125,-0.5625 0.265625,0 0.421875,0 0.421875,-0.34375 C 5.375,-12.25 5.1875,-12.25 5.125,-12.25 c -0.296875,0 -0.65625,0.03125 -0.96875,0.03125 h -1 c -1.3125,0 -1.84375,-0.03125 -1.859375,-0.03125 -0.109375,0 -0.328125,0 -0.328125,0.328125 0,0.1875 0.125,0.1875 0.40625,0.1875 0.921875,0 0.96875,0.171875 1.03125,0.609375 l 1.4375,11.078125 C 3.890625,0.328125 3.890625,0.375 4.140625,0.375 c 0.21875,0 0.3125,-0.046875 0.484375,-0.34375 z m 0,0"
           style="stroke:none"
           inkscape:connector-curvature="0" />
      </symbol>
      <symbol
         id="lx-text1501-glyph1-0"
         overflow="visible"
         style="overflow:visible">
        <path
           id="path1720"
           d=""
           style="stroke:none"
           inkscape:connector-curvature="0" />
      </symbol>
      <symbol
         id="lx-text1501-glyph1-1"
         overflow="visible"
         style="overflow:visible">
        <path
           id="path1723"
           d="m 5.828125,4.359375 c 0,-0.046875 0,-0.09375 -0.296875,-0.390625 -1.796875,-1.8125 -2.8125,-4.78125 -2.8125,-8.4375 0,-3.484375 0.84375,-6.46875 2.9375,-8.59375 0.171875,-0.15625 0.171875,-0.1875 0.171875,-0.25 0,-0.109375 -0.09375,-0.140625 -0.15625,-0.140625 -0.234375,0 -1.703125,1.296875 -2.59375,3.046875 -0.90625,1.8125 -1.3125,3.734375 -1.3125,5.9375 0,1.59375 0.25,3.734375 1.171875,5.65625 C 4,3.34375 5.46875,4.5 5.671875,4.5 c 0.0625,0 0.15625,-0.03125 0.15625,-0.140625 z m 0,0"
           style="stroke:none"
           inkscape:connector-curvature="0" />
      </symbol>
      <symbol
         id="lx-text1501-glyph1-2"
         overflow="visible"
         style="overflow:visible">
        <path
           id="path1726"
           d="m 5.0625,-4.46875 c 0,-1.359375 -0.1875,-3.578125 -1.1875,-5.671875 -1.0625,-2.140625 -2.53125,-3.3125 -2.734375,-3.3125 -0.0625,0 -0.15625,0.03125 -0.15625,0.140625 0,0.0625 0,0.09375 0.3125,0.390625 1.78125,1.8125 2.796875,4.78125 2.796875,8.4375 0,3.484375 -0.84375,6.46875 -2.921875,8.59375 -0.1875,0.15625 -0.1875,0.203125 -0.1875,0.25 C 0.984375,4.46875 1.078125,4.5 1.140625,4.5 1.375,4.5 2.859375,3.203125 3.734375,1.453125 4.640625,-0.375 5.0625,-2.3125 5.0625,-4.46875 Z m 0,0"
           style="stroke:none"
           inkscape:connector-curvature="0" />
      </symbol>
    </g>
  </defs>
  <sodipodi:namedview
     id="base"
     pagecolor="#ffffff"
     bordercolor="#666666"
     borderopacity="1.0"
     inkscape:pageopacity="0.0"
     inkscape:pageshadow="2"
     inkscape:zoom="0.94"
     inkscape:cx="227.12766"
     inkscape:cy="772.76596"
     inkscape:document-units="mm"
     inkscape:current-layer="ltx-render-layer"
     showgrid="false"
     inkscape:window-width="1366"
     inkscape:window-height="705"
     inkscape:window-x="-8"
     inkscape:window-y="-8"
     inkscape:window-maximized="1" />
  <metadata
     id="metadata302">
    <rdf:RDF>
      <cc:Work
         rdf:about="">
        <dc:format>image/svg+xml</dc:format>
        <dc:type
           rdf:resource="http://purl.org/dc/dcmitype/StillImage" />
        <dc:title></dc:title>
      </cc:Work>
    </rdf:RDF>
  </metadata>
  <g
     inkscape:label="Capa 1"
     inkscape:groupmode="layer"
     id="layer1">
    <path
       style="fill:none;stroke:#000000;stroke-width:0.26458332px;stroke-linecap:butt;stroke-linejoin:miter;stroke-opacity:1"
       d="m 48.149109,125.67744 c 0,-63.408754 38.775142,-51.548128 38.775142,-51.548128"
       id="path407"
       inkscape:connector-curvature="0" />
    <path
       style="fill:none;stroke:#000000;stroke-width:0.26499999;stroke-linecap:butt;stroke-linejoin:miter;stroke-miterlimit:4;stroke-dasharray:none;stroke-opacity:1"
       d="m 99.059826,130.97292 c 0,-63.408757 38.775144,-51.548128 38.775144,-51.548128"
       id="path407-3"
       inkscape:connector-curvature="0" />
    <path
       style="fill:none;stroke:#000000;stroke-width:0.26458332px;stroke-linecap:butt;stroke-linejoin:miter;stroke-opacity:1"
       d="m 48.149109,125.67744 50.910717,5.29548"
       id="path424"
       inkscape:connector-curvature="0" />
    <path
       style="fill:none;stroke:#000000;stroke-width:0.26458332px;stroke-linecap:butt;stroke-linejoin:miter;stroke-opacity:1"
       d="m 86.924251,74.129312 50.910719,5.29548"
       id="path426"
       inkscape:connector-curvature="0" />
    <g
       transform="matrix(0.35277801,0,0,0.35277801,125.24327,73.673132)"
       id="lx-text5448">
      <defs
         id="defs5530">
        <g
           id="g435">
          <symbol
             style="overflow:visible"
             overflow="visible"
             id="symbol429">
            <path
               inkscape:connector-curvature="0"
               style="stroke:none"
               d=""
               id="path427" />
          </symbol>
          <symbol
             style="overflow:visible"
             overflow="visible"
             id="symbol433">
            <path
               inkscape:connector-curvature="0"
               style="stroke:none"
               d="m 13.828125,-9.046875 c 0.140625,-0.546875 0.171875,-0.6875 1.28125,-0.6875 0.34375,0 0.484375,0 0.484375,-0.296875 0,-0.171875 -0.15625,-0.171875 -0.40625,-0.171875 h -1.96875 c -0.390625,0 -0.40625,0 -0.578125,0.28125 L 7.1875,-1.40625 6.015625,-9.859375 C 5.96875,-10.203125 5.9375,-10.203125 5.5625,-10.203125 H 3.515625 c -0.296875,0 -0.453125,0 -0.453125,0.28125 0,0.1875 0.140625,0.1875 0.4375,0.1875 0.1875,0 0.453125,0.015625 0.640625,0.03125 0.234375,0.03125 0.328125,0.0625 0.328125,0.234375 0,0.0625 -0.015625,0.109375 -0.0625,0.28125 l -1.890625,7.609375 c -0.15625,0.59375 -0.40625,1.0625 -1.625,1.109375 -0.0625,0 -0.265625,0.015625 -0.265625,0.296875 C 0.625,-0.046875 0.71875,0 0.84375,0 c 0.46875,0 1,-0.046875 1.484375,-0.046875 C 2.84375,-0.046875 3.375,0 3.875,0 3.9375,0 4.140625,0 4.140625,-0.296875 4.140625,-0.46875 3.96875,-0.46875 3.875,-0.46875 3.015625,-0.484375 2.859375,-0.78125 2.859375,-1.125 c 0,-0.09375 0.015625,-0.171875 0.046875,-0.34375 L 4.9375,-9.609375 H 4.953125 L 6.25,-0.34375 C 6.28125,-0.171875 6.28125,0 6.46875,0 6.625,0 6.71875,-0.171875 6.796875,-0.265625 l 6.03125,-9.453125 h 0.01563 l -2.140625,8.546875 c -0.14063,0.59375 -0.17188,0.703125 -1.35938,0.703125 -0.25,0 -0.40625,0 -0.40625,0.296875 C 8.9375,0 9.109375,0 9.15625,0 9.578125,0 10.59375,-0.046875 11.015625,-0.046875 11.625,-0.046875 12.265625,0 12.875,0 c 0.09375,0 0.28125,0 0.28125,-0.296875 0,-0.171875 -0.125,-0.171875 -0.421875,-0.171875 -0.546875,0 -0.96875,0 -0.96875,-0.265625 0,-0.0625 0,-0.09375 0.07813,-0.359375 z m 0,0"
               id="path431" />
          </symbol>
        </g>
      </defs>
      <g
         id="lx-text5448-surface1">
        <g
           style="fill:#000000;fill-opacity:1"
           id="g5534">
          <use
             height="100%"
             width="100%"
             xlink:href="#lx-text5448-glyph0-1"
             x="0"
             y="0"
             id="use5532" />
        </g>
      </g>
    </g>
    <path
       style="fill:none;stroke:#000000;stroke-width:0.26458332px;stroke-linecap:butt;stroke-linejoin:miter;stroke-opacity:1"
       d="M 67.271719,112.91755 C 72.619681,91.244236 96.826241,96.029255 96.826241,96.029255"
       id="path533"
       inkscape:connector-curvature="0" />
    <path
       style="fill:none;stroke:#000000;stroke-width:0.265;stroke-linecap:butt;stroke-linejoin:miter;stroke-opacity:1;stroke-miterlimit:4;stroke-dasharray:none;marker-end:url(#Arrow1Lend)"
       d="M 76.841754,99.125441 92.885637,89.836878"
       id="path537"
       inkscape:connector-curvature="0" />
    <circle
       style="opacity:1;fill:#000000;fill-opacity:1;stroke:#000000;stroke-width:0.06524443;stroke-linecap:round;stroke-linejoin:bevel;stroke-miterlimit:4;stroke-dasharray:0.06524443, 0.13048885;stroke-dashoffset:0;stroke-opacity:1;paint-order:markers stroke fill"
       id="path539"
       cx="77.146523"
       cy="98.820679"
       r="0.96737778" />
  </g>
  <g
     ns0:math="False"
     ns0:newline="False"
     ns0:fontsize="12"
     ns0:depth="0"
     ns0:scale="1.5"
     ns0:packages="amsmath,amssymb"
     ns0:preamble=""
     id="ltx-render-layer"
     inkscape:groupmode="layer"
     inkscape:label="Rendered Latex">
    <g
       id="lx-text1638"
       transform="matrix(0.352778,0,0,0.352778,77.68617,86.177748)">
      <defs
         id="defs1733">
        <g
           id="g1731">
          <symbol
             id="lx-text1638-glyph0-0"
             overflow="visible"
             style="overflow:visible">
            <path
               id="path1713"
               d=""
               style="stroke:none"
               inkscape:connector-curvature="0" />
          </symbol>
          <symbol
             id="lx-text1638-glyph0-1"
             overflow="visible"
             style="overflow:visible">
            <path
               id="path1716"
               d="m 8.515625,-7.28125 -1.6875,-3.921875 c 0.234375,-0.4375 0.78125,-0.515625 1,-0.53125 0.09375,0 0.296875,-0.01563 0.296875,-0.3125 C 8.125,-12.25 7.96875,-12.25 7.859375,-12.25 c -0.3125,0 -0.671875,0.03125 -0.96875,0.03125 H 5.84375 c -1.09375,0 -1.875,-0.03125 -1.890625,-0.03125 -0.15625,0 -0.328125,0 -0.328125,0.34375 0,0.171875 0.15625,0.171875 0.390625,0.171875 1.046875,0 1.109375,0.1875 1.296875,0.609375 l 2.125,4.984375 -3.890625,4.171875 C 2.90625,-1.28125 2.140625,-0.59375 0.8125,-0.515625 0.59375,-0.5 0.453125,-0.5 0.453125,-0.171875 0.453125,-0.125 0.46875,0 0.65625,0 0.921875,0 1.1875,-0.03125 1.4375,-0.03125 H 2.28125 C 2.859375,-0.03125 3.484375,0 4.03125,0 4.15625,0 4.375,0 4.375,-0.328125 4.375,-0.5 4.25,-0.515625 4.140625,-0.515625 3.78125,-0.5625 3.546875,-0.75 3.546875,-1.046875 c 0,-0.296875 0.21875,-0.515625 0.734375,-1.046875 l 1.609375,-1.75 C 6.28125,-4.25 7.234375,-5.296875 7.625,-5.6875 L 9.5,-1.28125 c 0.03125,0.046875 0.09375,0.21875 0.09375,0.234375 0,0.171875 -0.390625,0.484375 -0.96875,0.53125 -0.109375,0 -0.296875,0.015625 -0.296875,0.34375 C 8.328125,0 8.5,0 8.59375,0 8.890625,0 9.25,-0.03125 9.5625,-0.03125 h 1.96875 C 11.859375,-0.03125 12.203125,0 12.5,0 c 0.125,0 0.328125,0 0.328125,-0.34375 0,-0.171875 -0.1875,-0.171875 -0.34375,-0.171875 C 11.40625,-0.53125 11.375,-0.625 11.0625,-1.296875 l -2.359375,-5.5625 2.28125,-2.4375 c 0.171875,-0.171875 0.578125,-0.625 0.75,-0.796875 0.765625,-0.8125 1.484375,-1.546875 2.9375,-1.640625 0.1875,-0.01563 0.359375,-0.01563 0.359375,-0.3125 0,-0.203125 -0.15625,-0.203125 -0.234375,-0.203125 -0.25,0 -0.515625,0.03125 -0.765625,0.03125 H 13.203125 C 12.625,-12.21875 12,-12.25 11.4375,-12.25 c -0.125,0 -0.328125,0 -0.328125,0.328125 0,0.171875 0.125,0.1875 0.234375,0.1875 0.28125,0.04687 0.578125,0.1875 0.578125,0.53125 l -0.01563,0.03125 c -0.01563,0.125 -0.04687,0.296875 -0.25,0.515625 z m 0,0"
               style="stroke:none"
               inkscape:connector-curvature="0" />
          </symbol>
          <symbol
             id="lx-text1638-glyph0-2"
             overflow="visible"
             style="overflow:visible">
            <path
               id="path1719"
               d="m 0.765625,2.28125 c -0.125,0.53125 -0.1875,0.671875 -0.921875,0.671875 -0.21875,0 -0.40625,0 -0.40625,0.34375 0,0.046875 0.03125,0.1875 0.21875,0.1875 0.234375,0 0.484375,-0.046875 0.71875,-0.046875 h 0.765625 c 0.390625,0 1.296875,0.046875 1.671875,0.046875 0.109375,0 0.328125,0 0.328125,-0.328125 0,-0.203125 -0.125,-0.203125 -0.4375,-0.203125 -0.8125,0 -0.875,-0.125 -0.875,-0.265625 0,-0.21875 0.8125,-3.296875 0.921875,-3.703125 0.1875,0.5 0.671875,1.1875 1.609375,1.1875 2.03125,0 4.21875,-2.625 4.21875,-5.265625 0,-1.65625 -0.9375,-2.8125 -2.28125,-2.8125 -1.15625,0 -2.125,1.109375 -2.3125,1.359375 C 3.84375,-7.4375 3.140625,-7.90625 2.421875,-7.90625 c -0.515625,0 -0.9375,0.25 -1.28125,0.921875 -0.3125,0.65625 -0.5625,1.75 -0.5625,1.8125 C 0.578125,-5.09375 0.640625,-5 0.765625,-5 0.921875,-5 0.9375,-5.015625 1.046875,-5.4375 1.3125,-6.5 1.65625,-7.546875 2.375,-7.546875 c 0.40625,0 0.546875,0.28125 0.546875,0.828125 0,0.421875 -0.046875,0.609375 -0.125,0.921875 z M 3.875,-5.59375 C 4,-6.09375 4.5,-6.625 4.796875,-6.875 c 0.1875,-0.171875 0.78125,-0.671875 1.46875,-0.671875 0.78125,0 1.140625,0.78125 1.140625,1.71875 0,0.859375 -0.5,2.890625 -0.953125,3.8125 -0.4375,0.96875 -1.265625,1.84375 -2.09375,1.84375 -1.21875,0 -1.421875,-1.546875 -1.421875,-1.625 0,-0.046875 0.046875,-0.1875 0.0625,-0.28125 z m 0,0"
               style="stroke:none"
               inkscape:connector-curvature="0" />
          </symbol>
          <symbol
             id="lx-text1638-glyph1-0"
             overflow="visible"
             style="overflow:visible">
            <path
               id="path1722"
               d=""
               style="stroke:none"
               inkscape:connector-curvature="0" />
          </symbol>
          <symbol
             id="lx-text1638-glyph1-1"
             overflow="visible"
             style="overflow:visible">
            <path
               id="path1725"
               d="m 5.828125,4.359375 c 0,-0.046875 0,-0.09375 -0.296875,-0.390625 -1.796875,-1.8125 -2.8125,-4.78125 -2.8125,-8.4375 0,-3.484375 0.84375,-6.46875 2.9375,-8.59375 0.171875,-0.15625 0.171875,-0.1875 0.171875,-0.25 0,-0.109375 -0.09375,-0.140625 -0.15625,-0.140625 -0.234375,0 -1.703125,1.296875 -2.59375,3.046875 -0.90625,1.8125 -1.3125,3.734375 -1.3125,5.9375 0,1.59375 0.25,3.734375 1.171875,5.65625 C 4,3.34375 5.46875,4.5 5.671875,4.5 c 0.0625,0 0.15625,-0.03125 0.15625,-0.140625 z m 0,0"
               style="stroke:none"
               inkscape:connector-curvature="0" />
          </symbol>
          <symbol
             id="lx-text1638-glyph1-2"
             overflow="visible"
             style="overflow:visible">
            <path
               id="path1728"
               d="m 5.0625,-4.46875 c 0,-1.359375 -0.1875,-3.578125 -1.1875,-5.671875 -1.0625,-2.140625 -2.53125,-3.3125 -2.734375,-3.3125 -0.0625,0 -0.15625,0.03125 -0.15625,0.140625 0,0.0625 0,0.09375 0.3125,0.390625 1.78125,1.8125 2.796875,4.78125 2.796875,8.4375 0,3.484375 -0.84375,6.46875 -2.921875,8.59375 -0.1875,0.15625 -0.1875,0.203125 -0.1875,0.25 C 0.984375,4.46875 1.078125,4.5 1.140625,4.5 1.375,4.5 2.859375,3.203125 3.734375,1.453125 4.640625,-0.375 5.0625,-2.3125 5.0625,-4.46875 Z m 0,0"
               style="stroke:none"
               inkscape:connector-curvature="0" />
          </symbol>
        </g>
      </defs>
      <g
         id="lx-text1638-surface1">
        <g
           id="g1737"
           style="fill:#000000;fill-opacity:1">
          <use
             id="use1735"
             y="0"
             x="0"
             xlink:href="#lx-text1638-glyph0-1"
             width="100%"
             height="100%" />
        </g>
        <g
           id="g1741"
           style="fill:#000000;fill-opacity:1">
          <use
             id="use1739"
             y="0"
             x="15.9825"
             xlink:href="#lx-text1638-glyph1-1"
             width="100%"
             height="100%" />
        </g>
        <g
           id="g1745"
           style="fill:#000000;fill-opacity:1">
          <use
             id="use1743"
             y="0"
             x="22.812"
             xlink:href="#lx-text1638-glyph0-2"
             width="100%"
             height="100%" />
        </g>
        <g
           id="g1749"
           style="fill:#000000;fill-opacity:1">
          <use
             id="use1747"
             y="0"
             x="31.6245"
             xlink:href="#lx-text1638-glyph1-2"
             width="100%"
             height="100%" />
        </g>
      </g>
    </g>
    <g
       id="lx-text1642"
       transform="matrix(0.352778,0,0,0.352778,91.90072,104.96363)">
      <defs
         id="defs1761">
        <g
           id="g1759">
          <symbol
             id="lx-text1642-glyph0-0"
             overflow="visible"
             style="overflow:visible">
            <path
               id="path1753"
               d=""
               style="stroke:none"
               inkscape:connector-curvature="0" />
          </symbol>
          <symbol
             id="lx-text1642-glyph0-1"
             overflow="visible"
             style="overflow:visible">
            <path
               id="path1756"
               d="M 6.78125,-2.1875 C 6.75,-3.0625 6.703125,-4.453125 6.03125,-6.0625 5.671875,-6.953125 5.0625,-7.90625 3.75,-7.90625 c -2.203125,0 -3.40625,2.8125 -3.40625,3.28125 0,0.15625 0.125,0.15625 0.171875,0.15625 0.171875,0 0.171875,-0.03125 0.25,-0.265625 0.375,-1.109375 1.53125,-1.984375 2.765625,-1.984375 2.5,0 2.859375,2.765625 2.859375,4.546875 0,1.125 -0.125,1.515625 -0.234375,1.859375 -0.34375,1.125 -0.9375,3.34375 -0.9375,3.84375 0,0.140625 0.0625,0.3125 0.203125,0.3125 0.265625,0 0.421875,-0.59375 0.625,-1.3125 0.421875,-1.578125 0.53125,-2.375 0.625,-3.09375 0.046875,-0.421875 1.078125,-3.390625 2.5,-6.203125 0.125,-0.28125 0.375,-0.765625 0.375,-0.828125 0,-0.015625 -0.015625,-0.140625 -0.1875,-0.140625 -0.03125,0 -0.125,0 -0.15625,0.078125 C 9.171875,-7.625 8.53125,-6.40625 8,-5.1875 c -0.265625,0.609375 -0.625,1.421875 -1.21875,3 z m 0,0"
               style="stroke:none"
               inkscape:connector-curvature="0" />
          </symbol>
        </g>
      </defs>
      <g
         id="lx-text1642-surface1">
        <g
           id="g1765"
           style="fill:#000000;fill-opacity:1">
          <use
             id="use1763"
             y="0"
             x="0"
             xlink:href="#lx-text1642-glyph0-1"
             width="100%"
             height="100%" />
        </g>
      </g>
    </g>
    <g
       id="lx-text1646"
       transform="matrix(0.352778,0,0,0.352778,68.96055,97.436615)">
      <defs
         id="defs1777">
        <g
           id="g1775">
          <symbol
             id="lx-text1646-glyph0-0"
             overflow="visible"
             style="overflow:visible">
            <path
               id="path1769"
               d=""
               style="stroke:none"
               inkscape:connector-curvature="0" />
          </symbol>
          <symbol
             id="lx-text1646-glyph0-1"
             overflow="visible"
             style="overflow:visible">
            <path
               id="path1772"
               d="m 0.765625,2.28125 c -0.125,0.53125 -0.1875,0.671875 -0.921875,0.671875 -0.21875,0 -0.40625,0 -0.40625,0.34375 0,0.046875 0.03125,0.1875 0.21875,0.1875 0.234375,0 0.484375,-0.046875 0.71875,-0.046875 h 0.765625 c 0.390625,0 1.296875,0.046875 1.671875,0.046875 0.109375,0 0.328125,0 0.328125,-0.328125 0,-0.203125 -0.125,-0.203125 -0.4375,-0.203125 -0.8125,0 -0.875,-0.125 -0.875,-0.265625 0,-0.21875 0.8125,-3.296875 0.921875,-3.703125 0.1875,0.5 0.671875,1.1875 1.609375,1.1875 2.03125,0 4.21875,-2.625 4.21875,-5.265625 0,-1.65625 -0.9375,-2.8125 -2.28125,-2.8125 -1.15625,0 -2.125,1.109375 -2.3125,1.359375 C 3.84375,-7.4375 3.140625,-7.90625 2.421875,-7.90625 c -0.515625,0 -0.9375,0.25 -1.28125,0.921875 -0.3125,0.65625 -0.5625,1.75 -0.5625,1.8125 C 0.578125,-5.09375 0.640625,-5 0.765625,-5 0.921875,-5 0.9375,-5.015625 1.046875,-5.4375 1.3125,-6.5 1.65625,-7.546875 2.375,-7.546875 c 0.40625,0 0.546875,0.28125 0.546875,0.828125 0,0.421875 -0.046875,0.609375 -0.125,0.921875 z M 3.875,-5.59375 C 4,-6.09375 4.5,-6.625 4.796875,-6.875 c 0.1875,-0.171875 0.78125,-0.671875 1.46875,-0.671875 0.78125,0 1.140625,0.78125 1.140625,1.71875 0,0.859375 -0.5,2.890625 -0.953125,3.8125 -0.4375,0.96875 -1.265625,1.84375 -2.09375,1.84375 -1.21875,0 -1.421875,-1.546875 -1.421875,-1.625 0,-0.046875 0.046875,-0.1875 0.0625,-0.28125 z m 0,0"
               style="stroke:none"
               inkscape:connector-curvature="0" />
          </symbol>
        </g>
      </defs>
      <g
         id="lx-text1646-surface1">
        <g
           id="g1781"
           style="fill:#000000;fill-opacity:1">
          <use
             id="use1779"
             y="0"
             x="0"
             xlink:href="#lx-text1646-glyph0-1"
             width="100%"
             height="100%" />
        </g>
      </g>
    </g>
  </g>
</svg>
