<?xml version="1.0" encoding="UTF-8" standalone="no"?>
<!-- Created with Inkscape (http://www.inkscape.org/) -->

<svg
   xmlns:ns0="http://NOTSET"
   xmlns:dc="http://purl.org/dc/elements/1.1/"
   xmlns:cc="http://creativecommons.org/ns#"
   xmlns:rdf="http://www.w3.org/1999/02/22-rdf-syntax-ns#"
   xmlns:svg="http://www.w3.org/2000/svg"
   xmlns="http://www.w3.org/2000/svg"
   xmlns:xlink="http://www.w3.org/1999/xlink"
   xmlns:sodipodi="http://sodipodi.sourceforge.net/DTD/sodipodi-0.dtd"
   xmlns:inkscape="http://www.inkscape.org/namespaces/inkscape"
   id="svg375"
   version="1.1"
   viewBox="0 0 210 297"
   height="297mm"
   width="210mm"
   inkscape:version="0.92.4 (5da689c313, 2019-01-14)"
   sodipodi:docname="parametrizacao.svg">
  <defs
     id="defs369">
    <marker
       inkscape:isstock="true"
       style="overflow:visible;"
       id="marker5400"
       refX="0.0"
       refY="0.0"
       orient="auto"
       inkscape:stockid="Arrow1Lend">
      <path
         transform="scale(0.8) rotate(180) translate(12.5,0)"
         style="fill-rule:evenodd;stroke:#000000;stroke-width:1pt;stroke-opacity:1;fill:#000000;fill-opacity:1"
         d="M 0.0,0.0 L 5.0,-5.0 L -12.5,0.0 L 5.0,5.0 L 0.0,0.0 z "
         id="path5398" />
    </marker>
    <marker
       inkscape:isstock="true"
       style="overflow:visible"
       id="marker5324"
       refX="0.0"
       refY="0.0"
       orient="auto"
       inkscape:stockid="Arrow1Lstart">
      <path
         transform="scale(0.8) translate(12.5,0)"
         style="fill-rule:evenodd;stroke:#000000;stroke-width:1pt;stroke-opacity:1;fill:#000000;fill-opacity:1"
         d="M 0.0,0.0 L 5.0,-5.0 L -12.5,0.0 L 5.0,5.0 L 0.0,0.0 z "
         id="path5322" />
    </marker>
    <marker
       inkscape:stockid="Arrow1Lstart"
       orient="auto"
       refY="0.0"
       refX="0.0"
       id="Arrow1Lstart"
       style="overflow:visible"
       inkscape:isstock="true"
       inkscape:collect="always">
      <path
         id="path4984"
         d="M 0.0,0.0 L 5.0,-5.0 L -12.5,0.0 L 5.0,5.0 L 0.0,0.0 z "
         style="fill-rule:evenodd;stroke:#000000;stroke-width:1pt;stroke-opacity:1;fill:#000000;fill-opacity:1"
         transform="scale(0.8) translate(12.5,0)" />
    </marker>
    <marker
       inkscape:stockid="Arrow1Lend"
       orient="auto"
       refY="0.0"
       refX="0.0"
       id="Arrow1Lend"
       style="overflow:visible;"
       inkscape:isstock="true"
       inkscape:collect="always">
      <path
         id="path4987"
         d="M 0.0,0.0 L 5.0,-5.0 L -12.5,0.0 L 5.0,5.0 L 0.0,0.0 z "
         style="fill-rule:evenodd;stroke:#000000;stroke-width:1pt;stroke-opacity:1;fill:#000000;fill-opacity:1"
         transform="scale(0.8) rotate(180) translate(12.5,0)" />
    </marker>
  </defs>
  <sodipodi:namedview
     id="base"
     pagecolor="#ffffff"
     bordercolor="#666666"
     borderopacity="1.0"
     inkscape:pageopacity="0.0"
     inkscape:pageshadow="2"
     inkscape:zoom="1.08"
     inkscape:cx="312.58474"
     inkscape:cy="943.41857"
     inkscape:document-units="mm"
     inkscape:current-layer="ltx-render-layer"
     showgrid="false"
     inkscape:window-width="1366"
     inkscape:window-height="712"
     inkscape:window-x="0"
     inkscape:window-y="28"
     inkscape:window-maximized="1" />
  <metadata
     id="metadata372">
    <rdf:RDF>
      <cc:Work
         rdf:about="">
        <dc:format>image/svg+xml</dc:format>
        <dc:type
           rdf:resource="http://purl.org/dc/dcmitype/StillImage" />
        <dc:title />
      </cc:Work>
    </rdf:RDF>
  </metadata>
  <g
     inkscape:label="Capa 1"
     inkscape:groupmode="layer"
     id="layer1">
    <path
       style="fill:none;stroke:#000000;stroke-width:0.26458332px;stroke-linecap:butt;stroke-linejoin:miter;stroke-opacity:1"
       d="m 27.279439,59.039204 c 0,-63.4087544 38.775142,-51.5481285 38.775142,-51.5481285"
       id="path407"
       inkscape:connector-curvature="0" />
    <path
       style="fill:none;stroke:#000000;stroke-width:0.26499999;stroke-linecap:butt;stroke-linejoin:miter;stroke-miterlimit:4;stroke-dasharray:none;stroke-opacity:1"
       d="m 78.190096,64.334683 c 0,-63.40875657 38.775014,-51.548129 38.775014,-51.548129"
       id="path407-3"
       inkscape:connector-curvature="0" />
    <path
       style="fill:none;stroke:#000000;stroke-width:0.26458332px;stroke-linecap:butt;stroke-linejoin:miter;stroke-opacity:1"
       d="m 27.279439,59.039204 50.910657,5.295479"
       id="path424"
       inkscape:connector-curvature="0" />
    <path
       style="fill:none;stroke:#000000;stroke-width:0.26458332px;stroke-linecap:butt;stroke-linejoin:miter;stroke-opacity:1"
       d="M 66.054581,7.4910755 116.96511,12.786553"
       id="path426"
       inkscape:connector-curvature="0" />
    <path
       style="fill:none;stroke:#000000;stroke-width:0.26499999;stroke-linecap:butt;stroke-linejoin:miter;stroke-miterlimit:4;stroke-dasharray:none;stroke-opacity:1;marker-start:url(#Arrow1Lstart)"
       d="m 18.995282,81.389288 -7.7e-5,80.292432"
       id="path428"
       inkscape:connector-curvature="0" />
    <path
       style="fill:none;stroke:#000000;stroke-width:0.26566821px;stroke-linecap:butt;stroke-linejoin:miter;stroke-opacity:1;marker-end:url(#Arrow1Lend)"
       d="m 3.0810962,143.93959 99.4839338,-0.1024"
       id="path430"
       inkscape:connector-curvature="0" />
    <ellipse
       id="path432"
       cx="60.687477"
       cy="41.424973"
       rx="12.39217"
       ry="4.8921704"
       style="opacity:0.5;fill:#000000;fill-opacity:1;stroke:#000000;stroke-width:0.21565922;stroke-miterlimit:4;stroke-dasharray:none;stroke-opacity:1" />
    <ellipse
       id="path434"
       cx="69.01973"
       cy="134.0809"
       rx="26.686422"
       ry="19.84375"
       style="fill:none;stroke:#000000;stroke-width:0.26458332;stroke-opacity:1" />
    <path
       style="fill:none;stroke:#000000;stroke-width:0.25723279px;stroke-linecap:butt;stroke-linejoin:miter;stroke-opacity:1;marker-end:url(#marker5400)"
       d="M 78.373463,131.56819 C 94.8042,52.271233 65.593934,43.651981 65.593934,43.651981"
       id="path4944"
       inkscape:connector-curvature="0" />
    <circle
       style="fill:#000000;fill-opacity:1;stroke:#000000;stroke-width:0.1588176;stroke-miterlimit:4;stroke-dasharray:none;stroke-opacity:1"
       id="path4946"
       cx="60.799988"
       cy="41.220802"
       r="1.4205912" />
    <circle
       style="fill:none;fill-opacity:1;stroke:#000000;stroke-width:0.22400001;stroke-miterlimit:4;stroke-dasharray:0.224, 0.448;stroke-dashoffset:0;stroke-opacity:1"
       id="path5666"
       cx="60.68763"
       cy="40.42482"
       r="12.388155" />
  </g>
  <g
     ns0:math="False"
     ns0:newline="False"
     ns0:fontsize="10.0"
     ns0:depth="0.0"
     ns0:scale="1.5"
     ns0:packages="amsmath,amssymb"
     ns0:preamble=""
     id="ltx-render-layer"
     inkscape:groupmode="layer"
     inkscape:label="Rendered Latex">
    <g
       id="lx-text5440"
       transform="matrix(0.352778,0,0,0.352778,52.825416,39.423536)">
      <defs
         id="defs5498">
        <g
           id="g5496">
          <symbol
             id="lx-text5440-glyph0-0"
             overflow="visible"
             style="overflow:visible">
            <path
               id="path5490"
               d=""
               style="stroke:none"
               inkscape:connector-curvature="0" />
          </symbol>
          <symbol
             id="lx-text5440-glyph0-1"
             overflow="visible"
             style="overflow:visible">
            <path
               id="path5493"
               d="m 0.671875,1.828125 c -0.125,0.5 -0.15625,0.609375 -0.8125,0.609375 -0.171875,0 -0.34375,0 -0.34375,0.28125 0,0.125 0.078125,0.171875 0.203125,0.171875 0.40625,0 0.828125,-0.03125 1.25,-0.03125 0.5,0 1,0.03125 1.484375,0.03125 0.078125,0 0.265625,0 0.265625,-0.296875 0,-0.15625 -0.15625,-0.15625 -0.359375,-0.15625 -0.75,0 -0.75,-0.109375 -0.75,-0.234375 0,-0.1875 0.625,-2.625 0.734375,-3 0.203125,0.4375 0.609375,0.96875 1.375,0.96875 1.734375,0 3.59375,-2.1875 3.59375,-4.390625 0,-1.390625 -0.84375,-2.390625 -1.984375,-2.390625 -0.75,0 -1.453125,0.546875 -1.953125,1.125 -0.15625,-0.796875 -0.796875,-1.125 -1.34375,-1.125 -0.6875,0 -0.96875,0.59375 -1.109375,0.859375 -0.265625,0.5 -0.453125,1.40625 -0.453125,1.453125 0,0.140625 0.140625,0.140625 0.171875,0.140625 0.15625,0 0.171875,-0.015625 0.25,-0.34375 0.265625,-1.0625 0.5625,-1.78125 1.09375,-1.78125 0.25,0 0.46875,0.125 0.46875,0.6875 0,0.34375 -0.046875,0.515625 -0.109375,0.765625 z m 2.625,-6.484375 C 3.40625,-5.0625 3.8125,-5.484375 4.078125,-5.703125 4.59375,-6.171875 5.03125,-6.28125 5.28125,-6.28125 5.890625,-6.28125 6.25,-5.75 6.25,-4.875 c 0,0.890625 -0.5,2.609375 -0.765625,3.171875 C 4.96875,-0.65625 4.25,-0.171875 3.703125,-0.171875 2.71875,-0.171875 2.53125,-1.40625 2.53125,-1.5 c 0,-0.03125 0,-0.046875 0.03125,-0.234375 z m 0,0"
               style="stroke:none"
               inkscape:connector-curvature="0" />
          </symbol>
        </g>
      </defs>
      <g
         id="lx-text5440-surface1">
        <g
           id="g5502"
           style="fill:#000000;fill-opacity:1">
          <use
             id="use5500"
             y="0"
             x="0"
             xlink:href="#lx-text5440-glyph0-1"
             width="100%"
             height="100%" />
        </g>
      </g>
    </g>
    <g
       id="lx-text5444"
       transform="matrix(0.352778,0,0,0.352778,87.494892,115.60513)">
      <defs
         id="defs5514">
        <g
           id="g5512">
          <symbol
             id="lx-text5444-glyph0-0"
             overflow="visible"
             style="overflow:visible">
            <path
               id="path5506"
               d=""
               style="stroke:none"
               inkscape:connector-curvature="0" />
          </symbol>
          <symbol
             id="lx-text5444-glyph0-1"
             overflow="visible"
             style="overflow:visible">
            <path
               id="path5509"
               d="M 9.484375,-8.640625 C 9.640625,-9.25 9.90625,-9.6875 11.09375,-9.734375 c 0.07813,0 0.265625,-0.015625 0.265625,-0.296875 0,-0.01563 0,-0.171875 -0.203125,-0.171875 -0.484375,0 -1.015625,0.04687 -1.515625,0.04687 -0.515625,0 -1.0625,-0.04687 -1.5625,-0.04687 -0.09375,0 -0.265625,0 -0.265625,0.296875 0,0.171875 0.15625,0.171875 0.265625,0.171875 0.859375,0.015625 1.015625,0.328125 1.015625,0.65625 0,0.046875 -0.03125,0.265625 -0.046875,0.3125 L 7.703125,-3.4375 c -0.5,2 -2.21875,3.296875 -3.71875,3.296875 -1.015625,0 -1.8125,-0.65625 -1.8125,-1.9375 0,-0.03125 0,-0.5 0.15625,-1.15625 l 1.453125,-5.8125 c 0.125,-0.546875 0.15625,-0.6875 1.25,-0.6875 0.390625,0 0.515625,0 0.515625,-0.296875 0,-0.171875 -0.171875,-0.171875 -0.21875,-0.171875 -0.40625,0 -1.484375,0.04687 -1.90625,0.04687 -0.4375,0 -1.5,-0.04687 -1.921875,-0.04687 -0.125,0 -0.296875,0 -0.296875,0.296875 0,0.171875 0.140625,0.171875 0.421875,0.171875 0.03125,0 0.3125,0 0.578125,0.03125 0.265625,0.03125 0.390625,0.03125 0.390625,0.234375 0,0.09375 -0.15625,0.71875 -0.25,1.0625 l -0.328125,1.3125 C 1.875,-6.515625 1.171875,-3.6875 1.109375,-3.40625 1,-2.984375 1,-2.765625 1,-2.546875 c 0,1.828125 1.359375,2.875 2.921875,2.875 1.890625,0 3.734375,-1.6875 4.234375,-3.65625 z m 0,0"
               style="stroke:none"
               inkscape:connector-curvature="0" />
          </symbol>
        </g>
      </defs>
      <g
         id="lx-text5444-surface1">
        <g
           id="g5518"
           style="fill:#000000;fill-opacity:1">
          <use
             id="use5516"
             y="0"
             x="0"
             xlink:href="#lx-text5444-glyph0-1"
             width="100%"
             height="100%" />
        </g>
      </g>
    </g>
    <g
       id="lx-text5448"
       transform="matrix(0.352778,0,0,0.352778,104.37341,7.0348908)">
      <defs
         id="defs5530">
        <g
           id="g5528">
          <symbol
             id="lx-text5448-glyph0-0"
             overflow="visible"
             style="overflow:visible">
            <path
               id="path5522"
               d=""
               style="stroke:none"
               inkscape:connector-curvature="0" />
          </symbol>
          <symbol
             id="lx-text5448-glyph0-1"
             overflow="visible"
             style="overflow:visible">
            <path
               id="path5525"
               d="m 13.828125,-9.046875 c 0.140625,-0.546875 0.171875,-0.6875 1.28125,-0.6875 0.34375,0 0.484375,0 0.484375,-0.296875 0,-0.171875 -0.15625,-0.171875 -0.40625,-0.171875 h -1.96875 c -0.390625,0 -0.40625,0 -0.578125,0.28125 L 7.1875,-1.40625 6.015625,-9.859375 C 5.96875,-10.203125 5.9375,-10.203125 5.5625,-10.203125 H 3.515625 c -0.296875,0 -0.453125,0 -0.453125,0.28125 0,0.1875 0.140625,0.1875 0.4375,0.1875 0.1875,0 0.453125,0.015625 0.640625,0.03125 0.234375,0.03125 0.328125,0.0625 0.328125,0.234375 0,0.0625 -0.015625,0.109375 -0.0625,0.28125 l -1.890625,7.609375 c -0.15625,0.59375 -0.40625,1.0625 -1.625,1.109375 -0.0625,0 -0.265625,0.015625 -0.265625,0.296875 C 0.625,-0.046875 0.71875,0 0.84375,0 c 0.46875,0 1,-0.046875 1.484375,-0.046875 C 2.84375,-0.046875 3.375,0 3.875,0 3.9375,0 4.140625,0 4.140625,-0.296875 4.140625,-0.46875 3.96875,-0.46875 3.875,-0.46875 3.015625,-0.484375 2.859375,-0.78125 2.859375,-1.125 c 0,-0.09375 0.015625,-0.171875 0.046875,-0.34375 L 4.9375,-9.609375 H 4.953125 L 6.25,-0.34375 C 6.28125,-0.171875 6.28125,0 6.46875,0 6.625,0 6.71875,-0.171875 6.796875,-0.265625 l 6.03125,-9.453125 h 0.01563 l -2.140625,8.546875 c -0.14063,0.59375 -0.17188,0.703125 -1.35938,0.703125 -0.25,0 -0.40625,0 -0.40625,0.296875 C 8.9375,0 9.109375,0 9.15625,0 9.578125,0 10.59375,-0.046875 11.015625,-0.046875 11.625,-0.046875 12.265625,0 12.875,0 c 0.09375,0 0.28125,0 0.28125,-0.296875 0,-0.171875 -0.125,-0.171875 -0.421875,-0.171875 -0.546875,0 -0.96875,0 -0.96875,-0.265625 0,-0.0625 0,-0.09375 0.07813,-0.359375 z m 0,0"
               style="stroke:none"
               inkscape:connector-curvature="0" />
          </symbol>
        </g>
      </defs>
      <g
         id="lx-text5448-surface1">
        <g
           id="g5534"
           style="fill:#000000;fill-opacity:1">
          <use
             id="use5532"
             y="0"
             x="0"
             xlink:href="#lx-text5448-glyph0-1"
             width="100%"
             height="100%" />
        </g>
      </g>
    </g>
    <g
       id="lx-text5452"
       transform="matrix(0.352778,0,0,0.352778,74.789553,43.275705)">
      <defs
         id="defs5555">
        <g
           id="g5553">
          <symbol
             id="lx-text5452-glyph0-0"
             overflow="visible"
             style="overflow:visible">
            <path
               id="path5538"
               d=""
               style="stroke:none"
               inkscape:connector-curvature="0" />
          </symbol>
          <symbol
             id="lx-text5452-glyph0-1"
             overflow="visible"
             style="overflow:visible">
            <path
               id="path5541"
               d="m 13.828125,-9.046875 c 0.140625,-0.546875 0.171875,-0.6875 1.28125,-0.6875 0.34375,0 0.484375,0 0.484375,-0.296875 0,-0.171875 -0.15625,-0.171875 -0.40625,-0.171875 h -1.96875 c -0.390625,0 -0.40625,0 -0.578125,0.28125 L 7.1875,-1.40625 6.015625,-9.859375 C 5.96875,-10.203125 5.9375,-10.203125 5.5625,-10.203125 H 3.515625 c -0.296875,0 -0.453125,0 -0.453125,0.28125 0,0.1875 0.140625,0.1875 0.4375,0.1875 0.1875,0 0.453125,0.015625 0.640625,0.03125 0.234375,0.03125 0.328125,0.0625 0.328125,0.234375 0,0.0625 -0.015625,0.109375 -0.0625,0.28125 l -1.890625,7.609375 c -0.15625,0.59375 -0.40625,1.0625 -1.625,1.109375 -0.0625,0 -0.265625,0.015625 -0.265625,0.296875 C 0.625,-0.046875 0.71875,0 0.84375,0 c 0.46875,0 1,-0.046875 1.484375,-0.046875 C 2.84375,-0.046875 3.375,0 3.875,0 3.9375,0 4.140625,0 4.140625,-0.296875 4.140625,-0.46875 3.96875,-0.46875 3.875,-0.46875 3.015625,-0.484375 2.859375,-0.78125 2.859375,-1.125 c 0,-0.09375 0.015625,-0.171875 0.046875,-0.34375 L 4.9375,-9.609375 H 4.953125 L 6.25,-0.34375 C 6.28125,-0.171875 6.28125,0 6.46875,0 6.625,0 6.71875,-0.171875 6.796875,-0.265625 l 6.03125,-9.453125 h 0.01563 l -2.140625,8.546875 c -0.14063,0.59375 -0.17188,0.703125 -1.35938,0.703125 -0.25,0 -0.40625,0 -0.40625,0.296875 C 8.9375,0 9.109375,0 9.15625,0 9.578125,0 10.59375,-0.046875 11.015625,-0.046875 11.625,-0.046875 12.265625,0 12.875,0 c 0.09375,0 0.28125,0 0.28125,-0.296875 0,-0.171875 -0.125,-0.171875 -0.421875,-0.171875 -0.546875,0 -0.96875,0 -0.96875,-0.265625 0,-0.0625 0,-0.09375 0.07813,-0.359375 z m 0,0"
               style="stroke:none"
               inkscape:connector-curvature="0" />
          </symbol>
          <symbol
             id="lx-text5452-glyph0-2"
             overflow="visible"
             style="overflow:visible">
            <path
               id="path5544"
               d="m 9.375,-8.5 c 0.734375,-1.171875 1.359375,-1.203125 1.921875,-1.234375 0.171875,-0.015625 0.1875,-0.28125 0.1875,-0.28125 0,-0.125 -0.07813,-0.1875 -0.1875,-0.1875 -0.390625,0 -0.828125,0.04687 -1.234375,0.04687 -0.484375,0 -1,-0.04687 -1.46875,-0.04687 -0.09375,0 -0.28125,0 -0.28125,0.28125 0,0.171875 0.125,0.1875 0.234375,0.1875 0.40625,0.03125 0.6875,0.171875 0.6875,0.484375 C 9.234375,-9.015625 9,-8.6875 9,-8.671875 l -4.578125,7.28125 -1.015625,-7.90625 c 0,-0.25 0.34375,-0.4375 1.03125,-0.4375 0.203125,0 0.375,0 0.375,-0.296875 0,-0.140625 -0.125,-0.171875 -0.21875,-0.171875 -0.59375,0 -1.234375,0.04687 -1.84375,0.04687 -0.265625,0 -0.546875,-0.01563 -0.828125,-0.01563 -0.265625,0 -0.546875,-0.03125 -0.796875,-0.03125 -0.109375,0 -0.28125,0 -0.28125,0.28125 0,0.1875 0.125,0.1875 0.359375,0.1875 0.84375,0 0.859375,0.125 0.90625,0.5 l 1.171875,9.21875 C 3.328125,0.28125 3.390625,0.328125 3.578125,0.328125 3.828125,0.328125 3.890625,0.25 4,0.0625 Z m 0,0"
               style="stroke:none"
               inkscape:connector-curvature="0" />
          </symbol>
          <symbol
             id="lx-text5452-glyph1-0"
             overflow="visible"
             style="overflow:visible">
            <path
               id="path5547"
               d=""
               style="stroke:none"
               inkscape:connector-curvature="0" />
          </symbol>
          <symbol
             id="lx-text5452-glyph1-1"
             overflow="visible"
             style="overflow:visible">
            <path
               id="path5550"
               d="m 9.125,-5.671875 c 0,-2.28125 -2.28125,-3.265625 -4.15625,-3.265625 -1.9375,0 -4.140625,1.046875 -4.140625,3.25 v 5.484375 c 0,0.265625 0,0.53125 0.296875,0.53125 0.296875,0 0.296875,-0.265625 0.296875,-0.53125 v -5.40625 c 0,-2.25 2.4375,-2.71875 3.546875,-2.71875 0.671875,0 1.625,0.125 2.40625,0.640625 1.15625,0.734375 1.15625,1.6875 1.15625,2.09375 v 5.390625 c 0,0.265625 0,0.53125 0.296875,0.53125 C 9.125,0.328125 9.125,0.0625 9.125,-0.203125 Z m 0,0"
               style="stroke:none"
               inkscape:connector-curvature="0" />
          </symbol>
        </g>
      </defs>
      <g
         id="lx-text5452-surface1">
        <g
           id="g5559"
           style="fill:#000000;fill-opacity:1">
          <use
             id="use5557"
             y="0"
             x="0"
             xlink:href="#lx-text5452-glyph0-1"
             width="100%"
             height="100%" />
        </g>
        <g
           id="g5563"
           style="fill:#000000;fill-opacity:1">
          <use
             id="use5561"
             y="0"
             x="19.4475"
             xlink:href="#lx-text5452-glyph1-1"
             width="100%"
             height="100%" />
        </g>
        <g
           id="g5567"
           style="fill:#000000;fill-opacity:1">
          <use
             id="use5565"
             y="0"
             x="32.731499"
             xlink:href="#lx-text5452-glyph0-2"
             width="100%"
             height="100%" />
        </g>
      </g>
    </g>
    <g
       id="lx-text5456"
       transform="matrix(0.352778,0,0,0.352778,7.6637815,89.146853)">
      <defs
         id="defs5585">
        <g
           id="g5583">
          <symbol
             id="lx-text5456-glyph0-0"
             overflow="visible"
             style="overflow:visible">
            <path
               id="path5571"
               d=""
               style="stroke:none"
               inkscape:connector-curvature="0" />
          </symbol>
          <symbol
             id="lx-text5456-glyph0-1"
             overflow="visible"
             style="overflow:visible">
            <path
               id="path5574"
               d="m 4,-4.6875 h 0.546875 l 2.234375,3.46875 c 0.15625,0.234375 0.515625,0.8125 0.671875,1.046875 C 7.5625,0 7.609375,0 7.953125,0 h 2.0625 C 10.28125,0 10.5,0 10.5,-0.265625 c 0,-0.125 -0.09375,-0.234375 -0.21875,-0.25 C 9.71875,-0.640625 9,-1.625 8.640625,-2.109375 8.53125,-2.25 7.78125,-3.234375 6.78125,-4.859375 8.109375,-5.09375 9.390625,-5.65625 9.390625,-7.4375 c 0,-2.078125 -2.1875,-2.796875 -3.953125,-2.796875 H 0.75 c -0.265625,0 -0.515625,0 -0.515625,0.265625 0,0.265625 0.28125,0.265625 0.40625,0.265625 0.859375,0 0.921875,0.09375 0.921875,0.84375 V -1.375 c 0,0.75 -0.0625,0.859375 -0.921875,0.859375 -0.125,0 -0.40625,0 -0.40625,0.25 C 0.234375,0 0.484375,0 0.75,0 h 4.09375 c 0.265625,0 0.484375,0 0.484375,-0.265625 0,-0.25 -0.25,-0.25 -0.40625,-0.25 C 4.0625,-0.515625 4,-0.640625 4,-1.375 Z m 2.890625,-0.734375 c 0.40625,-0.546875 0.453125,-1.34375 0.453125,-2 0,-0.71875 -0.078125,-1.515625 -0.5625,-2.125 0.609375,0.140625 2.09375,0.59375 2.09375,2.109375 0,0.96875 -0.453125,1.734375 -1.984375,2.015625 z M 4,-8.90625 c 0,-0.3125 0,-0.796875 0.921875,-0.796875 1.28125,0 1.90625,0.515625 1.90625,2.28125 C 6.828125,-5.5 6.359375,-5.21875 4,-5.21875 Z m -2.03125,8.390625 c 0.125,-0.28125 0.125,-0.6875 0.125,-0.828125 v -7.546875 c 0,-0.140625 0,-0.546875 -0.125,-0.8125 h 1.703125 c -0.1875,0.234375 -0.1875,0.53125 -0.1875,0.75 v 7.609375 c 0,0.15625 0,0.546875 0.109375,0.828125 z M 5.15625,-4.6875 c 0.109375,-0.015625 0.15625,-0.03125 0.28125,-0.03125 0.21875,0 0.546875,-0.03125 0.78125,-0.0625 0.21875,0.359375 1.828125,3.015625 3.078125,4.265625 H 7.84375 Z m 0,0"
               style="stroke:none"
               inkscape:connector-curvature="0" />
          </symbol>
          <symbol
             id="lx-text5456-glyph1-0"
             overflow="visible"
             style="overflow:visible">
            <path
               id="path5577"
               d=""
               style="stroke:none"
               inkscape:connector-curvature="0" />
          </symbol>
          <symbol
             id="lx-text5456-glyph1-1"
             overflow="visible"
             style="overflow:visible">
            <path
               id="path5580"
               d="M 5.28125,-1.90625 H 4.921875 c -0.03125,0.234375 -0.140625,0.84375 -0.265625,0.953125 -0.09375,0.0625 -0.890625,0.0625 -1.046875,0.0625 H 1.6875 c 1.109375,-0.96875 1.46875,-1.265625 2.09375,-1.75 0.78125,-0.625 1.5,-1.265625 1.5,-2.265625 0,-1.265625 -1.109375,-2.03125 -2.453125,-2.03125 -1.296875,0 -2.171875,0.90625 -2.171875,1.875 0,0.53125 0.453125,0.578125 0.5625,0.578125 0.25,0 0.546875,-0.171875 0.546875,-0.546875 0,-0.203125 -0.078125,-0.5625 -0.609375,-0.5625 0.3125,-0.734375 1.03125,-0.96875 1.515625,-0.96875 1.046875,0 1.59375,0.8125 1.59375,1.65625 0,0.90625 -0.65625,1.640625 -0.984375,2.015625 L 0.765625,-0.40625 C 0.65625,-0.3125 0.65625,-0.296875 0.65625,0 h 4.3125 z m 0,0"
               style="stroke:none"
               inkscape:connector-curvature="0" />
          </symbol>
        </g>
      </defs>
      <g
         id="lx-text5456-surface1">
        <g
           id="g5589"
           style="fill:#000000;fill-opacity:1">
          <use
             id="use5587"
             y="0"
             x="0"
             xlink:href="#lx-text5456-glyph0-1"
             width="100%"
             height="100%" />
        </g>
        <g
           id="g5593"
           style="fill:#000000;fill-opacity:1">
          <use
             id="use5591"
             y="-5.4225001"
             x="10.7925"
             xlink:href="#lx-text5456-glyph1-1"
             width="100%"
             height="100%" />
        </g>
      </g>
    </g>
    <g
       id="lx-text5734"
       transform="matrix(0.352778,0,0,0.352778,65.851838,27.850129)">
      <defs
         id="defs5836">
        <g
           id="g5834">
          <symbol
             id="lx-text5734-glyph0-0"
             overflow="visible"
             style="overflow:visible">
            <path
               id="path5828"
               d=""
               style="stroke:none"
               inkscape:connector-curvature="0" />
          </symbol>
          <symbol
             id="lx-text5734-glyph0-1"
             overflow="visible"
             style="overflow:visible">
            <path
               id="path5831"
               d="m 9.375,-8.5 c 0.734375,-1.171875 1.359375,-1.203125 1.921875,-1.234375 0.171875,-0.015625 0.1875,-0.28125 0.1875,-0.28125 0,-0.125 -0.07813,-0.1875 -0.1875,-0.1875 -0.390625,0 -0.828125,0.04687 -1.234375,0.04687 -0.484375,0 -1,-0.04687 -1.46875,-0.04687 -0.09375,0 -0.28125,0 -0.28125,0.28125 0,0.171875 0.125,0.1875 0.234375,0.1875 0.40625,0.03125 0.6875,0.171875 0.6875,0.484375 C 9.234375,-9.015625 9,-8.6875 9,-8.671875 l -4.578125,7.28125 -1.015625,-7.90625 c 0,-0.25 0.34375,-0.4375 1.03125,-0.4375 0.203125,0 0.375,0 0.375,-0.296875 0,-0.140625 -0.125,-0.171875 -0.21875,-0.171875 -0.59375,0 -1.234375,0.04687 -1.84375,0.04687 -0.265625,0 -0.546875,-0.01563 -0.828125,-0.01563 -0.265625,0 -0.546875,-0.03125 -0.796875,-0.03125 -0.109375,0 -0.28125,0 -0.28125,0.28125 0,0.1875 0.125,0.1875 0.359375,0.1875 0.84375,0 0.859375,0.125 0.90625,0.5 l 1.171875,9.21875 C 3.328125,0.28125 3.390625,0.328125 3.578125,0.328125 3.828125,0.328125 3.890625,0.25 4,0.0625 Z m 0,0"
               style="stroke:none"
               inkscape:connector-curvature="0" />
          </symbol>
        </g>
      </defs>
      <g
         id="lx-text5734-surface1">
        <g
           id="g5840"
           style="fill:#000000;fill-opacity:1">
          <use
             id="use5838"
             y="0"
             x="0"
             xlink:href="#lx-text5734-glyph0-1"
             width="100%"
             height="100%" />
        </g>
      </g>
    </g>
    <g
       id="lx-text5858"
       transform="matrix(0.352778,0,0,0.352778,86.920435,78.316913)">
      <defs
         id="defs5969">
        <g
           id="g5967">
          <symbol
             id="lx-text5858-glyph0-0"
             overflow="visible"
             style="overflow:visible">
            <path
               id="path5961"
               d=""
               style="stroke:none"
               inkscape:connector-curvature="0" />
          </symbol>
          <symbol
             id="lx-text5858-glyph0-1"
             overflow="visible"
             style="overflow:visible">
            <path
               id="path5964"
               d="M 2.546875,2.546875 C 2.484375,2.734375 2.46875,2.765625 2.46875,2.84375 2.46875,3.171875 2.75,3.25 2.890625,3.25 2.96875,3.25 3.296875,3.21875 3.453125,2.875 3.5,2.75 3.5625,2.25 3.96875,0.140625 c 0.140625,0.015625 0.25,0.03125 0.5,0.03125 2.484375,0 4.78125,-2.359375 4.78125,-4.71875 0,-1.15625 -0.59375,-2.0625 -1.703125,-2.0625 -2.171875,0 -3.0625,2.90625 -3.96875,5.8125 C 1.96875,-1.09375 1.140625,-1.921875 1.140625,-3 c 0,-0.421875 0.34375,-2.0625 1.234375,-3.09375 C 2.5,-6.234375 2.5,-6.265625 2.5,-6.28125 2.5,-6.34375 2.46875,-6.4375 2.3125,-6.4375 c -0.421875,0 -1.5625,2.171875 -1.5625,3.59375 0,1.40625 0.984375,2.5 2.578125,2.875 z m 2.046875,-3.25 c -0.109375,0 -0.140625,0 -0.265625,-0.015625 -0.171875,0 -0.1875,-0.015625 -0.1875,-0.0625 0,-0.03125 0.25,-1.390625 0.296875,-1.609375 0.46875,-1.90625 1.625,-3.34375 2.953125,-3.34375 1.03125,0 1.4375,0.8125 1.4375,1.515625 0,1.6875 -1.921875,3.515625 -4.234375,3.515625 z m 0,0"
               style="stroke:none"
               inkscape:connector-curvature="0" />
          </symbol>
        </g>
      </defs>
      <g
         id="lx-text5858-surface1">
        <g
           id="g5973"
           style="fill:#000000;fill-opacity:1">
          <use
             id="use5971"
             y="0"
             x="0"
             xlink:href="#lx-text5858-glyph0-1"
             width="100%"
             height="100%" />
        </g>
      </g>
    </g>
  </g>
</svg>
