<?xml version="1.0" encoding="UTF-8" standalone="no"?>
<!-- Created with Inkscape (http://www.inkscape.org/) -->

<svg
   xmlns:rendltx="http://NOTSET"
   xmlns:dc="http://purl.org/dc/elements/1.1/"
   xmlns:cc="http://creativecommons.org/ns#"
   xmlns:rdf="http://www.w3.org/1999/02/22-rdf-syntax-ns#"
   xmlns:svg="http://www.w3.org/2000/svg"
   xmlns="http://www.w3.org/2000/svg"
   xmlns:xlink="http://www.w3.org/1999/xlink"
   xmlns:sodipodi="http://sodipodi.sourceforge.net/DTD/sodipodi-0.dtd"
   xmlns:inkscape="http://www.inkscape.org/namespaces/inkscape"
   width="210mm"
   height="297mm"
   viewBox="0 0 210 297"
   version="1.1"
   id="svg8"
   inkscape:version="0.92.4 (5da689c313, 2019-01-14)"
   sodipodi:docname="projecao_estereografica.svg">
  <defs
     id="defs2" />
  <sodipodi:namedview
     id="base"
     pagecolor="#ffffff"
     bordercolor="#666666"
     borderopacity="1.0"
     inkscape:pageopacity="0.0"
     inkscape:pageshadow="2"
     inkscape:zoom="1"
     inkscape:cx="237.5"
     inkscape:cy="800"
     inkscape:document-units="mm"
     inkscape:current-layer="ltx-render-layer"
     showgrid="false"
     inkscape:window-width="1366"
     inkscape:window-height="705"
     inkscape:window-x="-8"
     inkscape:window-y="-8"
     inkscape:window-maximized="1" />
  <metadata
     id="metadata5">
    <rdf:RDF>
      <cc:Work
         rdf:about="">
        <dc:format>image/svg+xml</dc:format>
        <dc:type
           rdf:resource="http://purl.org/dc/dcmitype/StillImage" />
        <dc:title />
      </cc:Work>
    </rdf:RDF>
  </metadata>
  <g
     inkscape:label="Capa 1"
     inkscape:groupmode="layer"
     id="layer1">
    <rect
       style="fill:none;fill-opacity:1;stroke:#000000;stroke-width:0.55062741;stroke-linecap:round;stroke-linejoin:bevel;stroke-miterlimit:4;stroke-dasharray:0.5506274, 1.1012548;stroke-dashoffset:0;stroke-opacity:1;paint-order:markers stroke fill"
       id="rect4558"
       width="119.15868"
       height="42.374523"
       x="146.37085"
       y="146.32367"
       transform="matrix(1,0,-0.71566793,0.6984407,0,0)" />
    <circle
       style="fill:#000000;stroke:#000000;stroke-width:0.37599998;stroke-miterlimit:4;stroke-dasharray:none;stroke-dashoffset:0;stroke-opacity:1;fill-opacity:1"
       id="path4543"
       cx="89.5"
       cy="47"
       r="1.3117921" />
    <path
       style="fill:none;stroke:#000000;stroke-width:0.26458332;stroke-linecap:butt;stroke-linejoin:miter;stroke-opacity:1;stroke-miterlimit:4;stroke-dasharray:0.26458332,0.52916663;stroke-dashoffset:0"
       d="M 89.958332,47.233334 C 105.30417,78.71875 105.30417,78.71875 105.30417,78.71875"
       id="path4963"
       inkscape:connector-curvature="0" />
    <path
       style="fill:none;stroke:#000000;stroke-width:0.26458332px;stroke-linecap:butt;stroke-linejoin:miter;stroke-opacity:1"
       d="m 105.30417,78.71875 c 21.96041,43.92083 21.96041,43.92083 21.96041,43.92083"
       id="path4965"
       inkscape:connector-curvature="0" />
    <circle
       style="fill:#000000;fill-opacity:1;stroke:#000000;stroke-width:0.37599999;stroke-miterlimit:4;stroke-dasharray:none;stroke-dashoffset:0;stroke-opacity:1"
       id="path4543-4"
       cx="105.56875"
       cy="79.512505"
       r="1.3117921" />
    <circle
       style="fill:#000000;fill-opacity:1;stroke:#000000;stroke-width:0.37599999;stroke-miterlimit:4;stroke-dasharray:none;stroke-dashoffset:0;stroke-opacity:1"
       id="path4543-9"
       cx="126.73542"
       cy="121.58125"
       r="1.3117921" />
    <text
       xml:space="preserve"
       style="font-style:normal;font-weight:normal;font-size:10.58333302px;line-height:1.25;font-family:sans-serif;letter-spacing:0px;word-spacing:0px;fill:#000000;fill-opacity:1;stroke:none;stroke-width:0.26458332"
       x="137.31874"
       y="111.52708"
       id="text4996"><tspan
         sodipodi:role="line"
         id="tspan4994"
         x="137.31874"
         y="121.18257"
         style="stroke-width:0.26458332" /></text>
  </g>
  <g
     inkscape:groupmode="layer"
     id="layer2"
     inkscape:label="Capa 2">
    <ellipse
       id="path3713"
       cx="88"
       cy="82"
       style="fill:#ffffff;stroke:#000000;stroke-width:0.264;stroke-miterlimit:4;stroke-dasharray:none;stroke-opacity:1;fill-opacity:0;opacity:1;"
       rx="34.867996"
       ry="34.868" />
    <path
       style="fill:none;stroke:#000000;stroke-width:0.26300002;stroke-miterlimit:4;stroke-dasharray:0.26300002, 0.52600004000000000;stroke-opacity:1;stroke-dashoffset:0"
       d="M 87.999999,72.13138 A 34.868688,9.8687116 0 0 0 53.13138,81.999997 34.868688,9.8687116 0 0 0 87.999999,91.86862 34.868688,9.8687116 0 0 0 122.86862,81.999997 34.868688,9.8687116 0 0 0 87.999999,72.13138 Z"
       id="path4528"
       inkscape:connector-curvature="0" />
  </g>
  <g
     rendltx:math="False"
     rendltx:newline="False"
     rendltx:fontsize="12"
     rendltx:depth="0"
     rendltx:scale="1.5"
     rendltx:packages="amsmath,amssymb"
     rendltx:preamble=""
     id="ltx-render-layer"
     inkscape:groupmode="layer"
     inkscape:label="Rendered Latex">
    <g
       id="lx-text825"
       transform="matrix(0.352778,0,0,0.352778,89.693748,38.766664)">
      <defs
         id="defs870">
        <g
           id="g868">
          <symbol
             id="lx-text825-glyph0-0"
             overflow="visible"
             style="overflow:visible">
            <path
               id="path844"
               d=""
               style="stroke:none"
               inkscape:connector-curvature="0" />
          </symbol>
          <symbol
             id="lx-text825-glyph0-1"
             overflow="visible"
             style="overflow:visible">
            <path
               id="path847"
               d="m 13.28125,-10.375 c 0.1875,-0.765625 0.484375,-1.296875 1.84375,-1.359375 0.04687,0 0.265625,-0.01563 0.265625,-0.3125 0,-0.203125 -0.15625,-0.203125 -0.234375,-0.203125 -0.359375,0 -1.265625,0.03125 -1.625,0.03125 h -0.875 c -0.25,0 -0.5625,-0.03125 -0.8125,-0.03125 -0.109375,0 -0.328125,0 -0.328125,0.34375 0,0.171875 0.140625,0.171875 0.265625,0.171875 1.078125,0.04687 1.15625,0.453125 1.15625,0.78125 0,0.15625 -0.01563,0.203125 -0.07813,0.453125 L 10.828125,-2.40625 7,-11.953125 C 6.875,-12.234375 6.859375,-12.25 6.453125,-12.25 h -2.1875 c -0.359375,0 -0.515625,0 -0.515625,0.34375 0,0.171875 0.125,0.171875 0.46875,0.171875 0.09375,0 1.140625,0 1.140625,0.171875 0,0.03125 -0.03125,0.171875 -0.046875,0.21875 l -2.390625,9.515625 c -0.21875,0.875 -0.640625,1.25 -1.828125,1.3125 C 1,-0.515625 0.828125,-0.5 0.828125,-0.171875 0.828125,0 1,0 1.0625,0 1.421875,0 2.328125,-0.03125 2.6875,-0.03125 h 0.859375 c 0.25,0 0.5625,0.03125 0.8125,0.03125 0.125,0 0.328125,0 0.328125,-0.34375 0,-0.15625 -0.1875,-0.171875 -0.25,-0.171875 -0.59375,-0.015625 -1.171875,-0.125 -1.171875,-0.78125 0,-0.140625 0.03125,-0.296875 0.078125,-0.4375 l 2.421875,-9.609375 c 0.09375,0.1875 0.09375,0.21875 0.171875,0.390625 l 4.265625,10.625 C 10.296875,-0.109375 10.328125,0 10.5,0 c 0.171875,0 0.1875,-0.046875 0.265625,-0.359375 z m 0,0"
               style="stroke:none"
               inkscape:connector-curvature="0" />
          </symbol>
          <symbol
             id="lx-text825-glyph0-2"
             overflow="visible"
             style="overflow:visible">
            <path
               id="path850"
               d="m 3.5,0.078125 c 0,-1.046875 -0.34375,-1.8125 -1.078125,-1.8125 -0.578125,0 -0.859375,0.453125 -0.859375,0.859375 0,0.390625 0.265625,0.875 0.875,0.875 0.234375,0 0.4375,-0.078125 0.59375,-0.234375 0.03125,-0.03125 0.046875,-0.03125 0.078125,-0.03125 0.03125,0 0.03125,0.25 0.03125,0.34375 0,0.578125 -0.109375,1.75 -1.15625,2.921875 -0.1875,0.203125 -0.1875,0.25 -0.1875,0.28125 0,0.09375 0.09375,0.1875 0.171875,0.1875 C 2.109375,3.46875 3.5,2.140625 3.5,0.078125 Z m 0,0"
               style="stroke:none"
               inkscape:connector-curvature="0" />
          </symbol>
          <symbol
             id="lx-text825-glyph1-0"
             overflow="visible"
             style="overflow:visible">
            <path
               id="path853"
               d=""
               style="stroke:none"
               inkscape:connector-curvature="0" />
          </symbol>
          <symbol
             id="lx-text825-glyph1-1"
             overflow="visible"
             style="overflow:visible">
            <path
               id="path856"
               d="m 5.828125,4.359375 c 0,-0.046875 0,-0.09375 -0.296875,-0.390625 -1.796875,-1.8125 -2.8125,-4.78125 -2.8125,-8.4375 0,-3.484375 0.84375,-6.46875 2.9375,-8.59375 0.171875,-0.15625 0.171875,-0.1875 0.171875,-0.25 0,-0.109375 -0.09375,-0.140625 -0.15625,-0.140625 -0.234375,0 -1.703125,1.296875 -2.59375,3.046875 -0.90625,1.8125 -1.3125,3.734375 -1.3125,5.9375 0,1.59375 0.25,3.734375 1.171875,5.65625 C 4,3.34375 5.46875,4.5 5.671875,4.5 c 0.0625,0 0.15625,-0.03125 0.15625,-0.140625 z m 0,0"
               style="stroke:none"
               inkscape:connector-curvature="0" />
          </symbol>
          <symbol
             id="lx-text825-glyph1-2"
             overflow="visible"
             style="overflow:visible">
            <path
               id="path859"
               d="m 8.03125,-5.734375 c 0,-1.5 -0.078125,-2.953125 -0.734375,-4.3125 -0.734375,-1.484375 -2.015625,-1.875 -2.90625,-1.875 -1.03125,0 -2.3125,0.515625 -2.96875,2 -0.5,1.125 -0.6875,2.25 -0.6875,4.1875 0,1.734375 0.125,3.046875 0.765625,4.3125 0.703125,1.375 1.9375,1.796875 2.875,1.796875 1.5625,0 2.453125,-0.9375 2.984375,-1.96875 C 8,-2.9375 8.03125,-4.703125 8.03125,-5.734375 Z m -3.65625,5.75 c -0.578125,0 -1.734375,-0.328125 -2.078125,-2.28125 -0.203125,-1.078125 -0.203125,-2.4375 -0.203125,-3.6875 0,-1.46875 0,-2.796875 0.296875,-3.859375 0.296875,-1.203125 1.21875,-1.75 1.984375,-1.75 0.6875,0 1.71875,0.40625 2.0625,1.953125 0.234375,1.015625 0.234375,2.4375 0.234375,3.65625 0,1.203125 0,2.5625 -0.203125,3.65625 C 6.140625,-0.328125 5,0.015625 4.375,0.015625 Z m 0,0"
               style="stroke:none"
               inkscape:connector-curvature="0" />
          </symbol>
          <symbol
             id="lx-text825-glyph1-3"
             overflow="visible"
             style="overflow:visible">
            <path
               id="path862"
               d="m 5.171875,-11.5 c 0,-0.40625 0,-0.421875 -0.359375,-0.421875 C 4.375,-11.4375 3.484375,-10.78125 1.625,-10.78125 v 0.515625 c 0.421875,0 1.3125,0 2.296875,-0.46875 V -1.375 c 0,0.640625 -0.046875,0.859375 -1.625,0.859375 h -0.5625 V 0 C 2.21875,-0.03125 3.96875,-0.03125 4.5625,-0.03125 c 0.578125,0 2.3125,0 2.796875,0.03125 v -0.515625 h -0.5625 c -1.578125,0 -1.625,-0.21875 -1.625,-0.859375 z m 0,0"
               style="stroke:none"
               inkscape:connector-curvature="0" />
          </symbol>
          <symbol
             id="lx-text825-glyph1-4"
             overflow="visible"
             style="overflow:visible">
            <path
               id="path865"
               d="m 5.0625,-4.46875 c 0,-1.359375 -0.1875,-3.578125 -1.1875,-5.671875 -1.0625,-2.140625 -2.53125,-3.3125 -2.734375,-3.3125 -0.0625,0 -0.15625,0.03125 -0.15625,0.140625 0,0.0625 0,0.09375 0.3125,0.390625 1.78125,1.8125 2.796875,4.78125 2.796875,8.4375 0,3.484375 -0.84375,6.46875 -2.921875,8.59375 -0.1875,0.15625 -0.1875,0.203125 -0.1875,0.25 C 0.984375,4.46875 1.078125,4.5 1.140625,4.5 1.375,4.5 2.859375,3.203125 3.734375,1.453125 4.640625,-0.375 5.0625,-2.3125 5.0625,-4.46875 Z m 0,0"
               style="stroke:none"
               inkscape:connector-curvature="0" />
          </symbol>
        </g>
      </defs>
      <g
         id="lx-text825-surface1">
        <g
           id="g874"
           style="fill:#000000;fill-opacity:1">
          <use
             id="use872"
             y="0"
             x="0"
             xlink:href="#lx-text825-glyph0-1"
             width="100%"
             height="100%" />
        </g>
        <g
           id="g880"
           style="fill:#000000;fill-opacity:1">
          <use
             id="use876"
             y="0"
             x="15.9345"
             xlink:href="#lx-text825-glyph1-1"
             width="100%"
             height="100%" />
          <use
             id="use878"
             y="0"
             x="22.763309"
             xlink:href="#lx-text825-glyph1-2"
             width="100%"
             height="100%" />
        </g>
        <g
           id="g884"
           style="fill:#000000;fill-opacity:1">
          <use
             id="use882"
             y="0"
             x="31.542"
             xlink:href="#lx-text825-glyph0-2"
             width="100%"
             height="100%" />
        </g>
        <g
           id="g888"
           style="fill:#000000;fill-opacity:1">
          <use
             id="use886"
             y="0"
             x="39.408001"
             xlink:href="#lx-text825-glyph1-2"
             width="100%"
             height="100%" />
        </g>
        <g
           id="g892"
           style="fill:#000000;fill-opacity:1">
          <use
             id="use890"
             y="0"
             x="48.1875"
             xlink:href="#lx-text825-glyph0-2"
             width="100%"
             height="100%" />
        </g>
        <g
           id="g898"
           style="fill:#000000;fill-opacity:1">
          <use
             id="use894"
             y="0"
             x="56.053501"
             xlink:href="#lx-text825-glyph1-3"
             width="100%"
             height="100%" />
          <use
             id="use896"
             y="0"
             x="64.833397"
             xlink:href="#lx-text825-glyph1-4"
             width="100%"
             height="100%" />
        </g>
      </g>
    </g>
    <g
       id="lx-text941"
       transform="matrix(0.352778,0,0,0.352778,111.12499,75.808323)">
      <defs
         id="defs1008">
        <g
           id="g1006">
          <symbol
             id="lx-text941-glyph0-0"
             overflow="visible"
             style="overflow:visible">
            <path
               id="path1000"
               d=""
               style="stroke:none"
               inkscape:connector-curvature="0" />
          </symbol>
          <symbol
             id="lx-text941-glyph0-1"
             overflow="visible"
             style="overflow:visible">
            <path
               id="path1003"
               d="m 0.765625,2.28125 c -0.125,0.53125 -0.1875,0.671875 -0.921875,0.671875 -0.21875,0 -0.40625,0 -0.40625,0.34375 0,0.046875 0.03125,0.1875 0.21875,0.1875 0.234375,0 0.484375,-0.046875 0.71875,-0.046875 h 0.765625 c 0.390625,0 1.296875,0.046875 1.671875,0.046875 0.109375,0 0.328125,0 0.328125,-0.328125 0,-0.203125 -0.125,-0.203125 -0.4375,-0.203125 -0.8125,0 -0.875,-0.125 -0.875,-0.265625 0,-0.21875 0.8125,-3.296875 0.921875,-3.703125 0.1875,0.5 0.671875,1.1875 1.609375,1.1875 2.03125,0 4.21875,-2.625 4.21875,-5.265625 0,-1.65625 -0.9375,-2.8125 -2.28125,-2.8125 -1.15625,0 -2.125,1.109375 -2.3125,1.359375 C 3.84375,-7.4375 3.140625,-7.90625 2.421875,-7.90625 c -0.515625,0 -0.9375,0.25 -1.28125,0.921875 -0.3125,0.65625 -0.5625,1.75 -0.5625,1.8125 C 0.578125,-5.09375 0.640625,-5 0.765625,-5 0.921875,-5 0.9375,-5.015625 1.046875,-5.4375 1.3125,-6.5 1.65625,-7.546875 2.375,-7.546875 c 0.40625,0 0.546875,0.28125 0.546875,0.828125 0,0.421875 -0.046875,0.609375 -0.125,0.921875 z M 3.875,-5.59375 C 4,-6.09375 4.5,-6.625 4.796875,-6.875 c 0.1875,-0.171875 0.78125,-0.671875 1.46875,-0.671875 0.78125,0 1.140625,0.78125 1.140625,1.71875 0,0.859375 -0.5,2.890625 -0.953125,3.8125 -0.4375,0.96875 -1.265625,1.84375 -2.09375,1.84375 -1.21875,0 -1.421875,-1.546875 -1.421875,-1.625 0,-0.046875 0.046875,-0.1875 0.0625,-0.28125 z m 0,0"
               style="stroke:none"
               inkscape:connector-curvature="0" />
          </symbol>
        </g>
      </defs>
      <g
         id="lx-text941-surface1">
        <g
           id="g1012"
           style="fill:#000000;fill-opacity:1">
          <use
             id="use1010"
             y="0"
             x="0"
             xlink:href="#lx-text941-glyph0-1"
             width="100%"
             height="100%" />
        </g>
      </g>
    </g>
    <g
       id="lx-text945"
       transform="matrix(0.352778,0,0,0.352778,128.85209,115.23124)">
      <defs
         id="defs1042">
        <g
           id="g1040">
          <symbol
             id="lx-text945-glyph0-0"
             overflow="visible"
             style="overflow:visible">
            <path
               id="path1016"
               d=""
               style="stroke:none"
               inkscape:connector-curvature="0" />
          </symbol>
          <symbol
             id="lx-text945-glyph0-1"
             overflow="visible"
             style="overflow:visible">
            <path
               id="path1019"
               d="m 4.640625,-6.765625 h 2.03125 c -0.484375,2.015625 -0.78125,3.328125 -0.78125,4.75 0,0.25 0,2.1875 0.734375,2.1875 0.375,0 0.6875,-0.328125 0.6875,-0.640625 0,-0.09375 0,-0.125 -0.125,-0.390625 -0.484375,-1.234375 -0.484375,-2.78125 -0.484375,-2.90625 0,-0.109375 0,-1.375 0.375,-3 H 9.09375 c 0.234375,0 0.828125,0 0.828125,-0.578125 0,-0.390625 -0.34375,-0.390625 -0.671875,-0.390625 H 3.359375 c -0.421875,0 -1.03125,0 -1.859375,0.875 -0.453125,0.53125 -1.03125,1.484375 -1.03125,1.578125 0,0.109375 0.09375,0.15625 0.1875,0.15625 0.140625,0 0.15625,-0.0625 0.234375,-0.171875 0.9375,-1.46875 1.875,-1.46875 2.3125,-1.46875 h 1.03125 c -0.390625,1.34375 -0.84375,2.90625 -2.3125,6.046875 -0.140625,0.28125 -0.140625,0.328125 -0.140625,0.4375 0,0.375 0.3125,0.453125 0.484375,0.453125 0.515625,0 0.65625,-0.453125 0.875,-1.21875 0.28125,-0.90625 0.28125,-0.9375 0.46875,-1.65625 z m 0,0"
               style="stroke:none"
               inkscape:connector-curvature="0" />
          </symbol>
          <symbol
             id="lx-text945-glyph0-2"
             overflow="visible"
             style="overflow:visible">
            <path
               id="path1022"
               d="m 0.765625,2.28125 c -0.125,0.53125 -0.1875,0.671875 -0.921875,0.671875 -0.21875,0 -0.40625,0 -0.40625,0.34375 0,0.046875 0.03125,0.1875 0.21875,0.1875 0.234375,0 0.484375,-0.046875 0.71875,-0.046875 h 0.765625 c 0.390625,0 1.296875,0.046875 1.671875,0.046875 0.109375,0 0.328125,0 0.328125,-0.328125 0,-0.203125 -0.125,-0.203125 -0.4375,-0.203125 -0.8125,0 -0.875,-0.125 -0.875,-0.265625 0,-0.21875 0.8125,-3.296875 0.921875,-3.703125 0.1875,0.5 0.671875,1.1875 1.609375,1.1875 2.03125,0 4.21875,-2.625 4.21875,-5.265625 0,-1.65625 -0.9375,-2.8125 -2.28125,-2.8125 -1.15625,0 -2.125,1.109375 -2.3125,1.359375 C 3.84375,-7.4375 3.140625,-7.90625 2.421875,-7.90625 c -0.515625,0 -0.9375,0.25 -1.28125,0.921875 -0.3125,0.65625 -0.5625,1.75 -0.5625,1.8125 C 0.578125,-5.09375 0.640625,-5 0.765625,-5 0.921875,-5 0.9375,-5.015625 1.046875,-5.4375 1.3125,-6.5 1.65625,-7.546875 2.375,-7.546875 c 0.40625,0 0.546875,0.28125 0.546875,0.828125 0,0.421875 -0.046875,0.609375 -0.125,0.921875 z M 3.875,-5.59375 C 4,-6.09375 4.5,-6.625 4.796875,-6.875 c 0.1875,-0.171875 0.78125,-0.671875 1.46875,-0.671875 0.78125,0 1.140625,0.78125 1.140625,1.71875 0,0.859375 -0.5,2.890625 -0.953125,3.8125 -0.4375,0.96875 -1.265625,1.84375 -2.09375,1.84375 -1.21875,0 -1.421875,-1.546875 -1.421875,-1.625 0,-0.046875 0.046875,-0.1875 0.0625,-0.28125 z m 0,0"
               style="stroke:none"
               inkscape:connector-curvature="0" />
          </symbol>
          <symbol
             id="lx-text945-glyph1-0"
             overflow="visible"
             style="overflow:visible">
            <path
               id="path1025"
               d=""
               style="stroke:none"
               inkscape:connector-curvature="0" />
          </symbol>
          <symbol
             id="lx-text945-glyph1-1"
             overflow="visible"
             style="overflow:visible">
            <path
               id="path1028"
               d="m 9.46875,-6.859375 c 0.140625,-0.59375 0.40625,-0.875 1.265625,-0.90625 0.125,0 0.21875,-0.078125 0.21875,-0.234375 0,-0.0625 -0.0625,-0.15625 -0.1875,-0.15625 -0.07813,0 -0.3125,0.03125 -1.1875,0.03125 -0.953125,0 -1.109375,-0.03125 -1.21875,-0.03125 -0.203125,0 -0.234375,0.125 -0.234375,0.21875 0,0.15625 0.15625,0.171875 0.265625,0.171875 C 9.125,-7.75 9.125,-7.421875 9.125,-7.25 c 0,0.046875 0,0.109375 -0.046875,0.3125 L 7.75,-1.703125 l -2.875,-6.25 C 4.78125,-8.15625 4.75,-8.15625 4.46875,-8.15625 H 2.921875 c -0.21875,0 -0.375,0 -0.375,0.21875 0,0.171875 0.140625,0.171875 0.390625,0.171875 0.09375,0 0.453125,0 0.734375,0.0625 L 2.0625,-1.28125 c -0.140625,0.59375 -0.453125,0.859375 -1.25,0.890625 -0.078125,0 -0.21875,0.015625 -0.21875,0.21875 C 0.59375,-0.09375 0.65625,0 0.78125,0 0.828125,0 1.09375,-0.03125 1.953125,-0.03125 2.90625,-0.03125 3.078125,0 3.1875,0 c 0.046875,0 0.234375,0 0.234375,-0.234375 0,-0.140625 -0.140625,-0.15625 -0.21875,-0.15625 -0.4375,-0.015625 -0.78125,-0.09375 -0.78125,-0.5 0,-0.0625 0.03125,-0.234375 0.03125,-0.25 L 4.015625,-7.375 H 4.03125 l 3.3125,7.15625 C 7.4375,-0.03125 7.453125,0 7.578125,0 7.75,0 7.75,-0.046875 7.8125,-0.25 Z m 0,0"
               style="stroke:none"
               inkscape:connector-curvature="0" />
          </symbol>
          <symbol
             id="lx-text945-glyph2-0"
             overflow="visible"
             style="overflow:visible">
            <path
               id="path1031"
               d=""
               style="stroke:none"
               inkscape:connector-curvature="0" />
          </symbol>
          <symbol
             id="lx-text945-glyph2-1"
             overflow="visible"
             style="overflow:visible">
            <path
               id="path1034"
               d="m 5.828125,4.359375 c 0,-0.046875 0,-0.09375 -0.296875,-0.390625 -1.796875,-1.8125 -2.8125,-4.78125 -2.8125,-8.4375 0,-3.484375 0.84375,-6.46875 2.9375,-8.59375 0.171875,-0.15625 0.171875,-0.1875 0.171875,-0.25 0,-0.109375 -0.09375,-0.140625 -0.15625,-0.140625 -0.234375,0 -1.703125,1.296875 -2.59375,3.046875 -0.90625,1.8125 -1.3125,3.734375 -1.3125,5.9375 0,1.59375 0.25,3.734375 1.171875,5.65625 C 4,3.34375 5.46875,4.5 5.671875,4.5 c 0.0625,0 0.15625,-0.03125 0.15625,-0.140625 z m 0,0"
               style="stroke:none"
               inkscape:connector-curvature="0" />
          </symbol>
          <symbol
             id="lx-text945-glyph2-2"
             overflow="visible"
             style="overflow:visible">
            <path
               id="path1037"
               d="m 5.0625,-4.46875 c 0,-1.359375 -0.1875,-3.578125 -1.1875,-5.671875 -1.0625,-2.140625 -2.53125,-3.3125 -2.734375,-3.3125 -0.0625,0 -0.15625,0.03125 -0.15625,0.140625 0,0.0625 0,0.09375 0.3125,0.390625 1.78125,1.8125 2.796875,4.78125 2.796875,8.4375 0,3.484375 -0.84375,6.46875 -2.921875,8.59375 -0.1875,0.15625 -0.1875,0.203125 -0.1875,0.25 C 0.984375,4.46875 1.078125,4.5 1.140625,4.5 1.375,4.5 2.859375,3.203125 3.734375,1.453125 4.640625,-0.375 5.0625,-2.3125 5.0625,-4.46875 Z m 0,0"
               style="stroke:none"
               inkscape:connector-curvature="0" />
          </symbol>
        </g>
      </defs>
      <g
         id="lx-text945-surface1">
        <g
           id="g1046"
           style="fill:#000000;fill-opacity:1">
          <use
             id="use1044"
             y="0"
             x="0"
             xlink:href="#lx-text945-glyph0-1"
             width="100%"
             height="100%" />
        </g>
        <g
           id="g1050"
           style="fill:#000000;fill-opacity:1">
          <use
             id="use1048"
             y="2.6895001"
             x="9.9615002"
             xlink:href="#lx-text945-glyph1-1"
             width="100%"
             height="100%" />
        </g>
        <g
           id="g1054"
           style="fill:#000000;fill-opacity:1">
          <use
             id="use1052"
             y="0"
             x="22.063499"
             xlink:href="#lx-text945-glyph2-1"
             width="100%"
             height="100%" />
        </g>
        <g
           id="g1058"
           style="fill:#000000;fill-opacity:1">
          <use
             id="use1056"
             y="0"
             x="28.8915"
             xlink:href="#lx-text945-glyph0-2"
             width="100%"
             height="100%" />
        </g>
        <g
           id="g1062"
           style="fill:#000000;fill-opacity:1">
          <use
             id="use1060"
             y="0"
             x="37.703999"
             xlink:href="#lx-text945-glyph2-2"
             width="100%"
             height="100%" />
        </g>
      </g>
    </g>
  </g>
</svg>
